<?xml version="1.0" encoding="utf-8"?>
<!-- Generator: Adobe Illustrator 23.0.6, SVG Export Plug-In . SVG Version: 6.00 Build 0)  -->
<svg version="1.1" xmlns="http://www.w3.org/2000/svg" xmlns:xlink="http://www.w3.org/1999/xlink" x="0px" y="0px"
	 viewBox="0 0 1920 1080" style="enable-background:new 0 0 1920 1080;" xml:space="preserve">
<style type="text/css">
	.st0{fill:url(#SVGID_1_);}
	.st1{fill:url(#SVGID_2_);}
	.st2{opacity:0.16;fill:#FFFFFF;}
</style>
<g id="Layer_1">
	<linearGradient id="SVGID_1_" gradientUnits="userSpaceOnUse" x1="1371.7651" y1="1133.5236" x2="538.1188" y2="-310.3943">
		<stop  offset="0" style="stop-color:#0D6583"/>
		<stop  offset="1" style="stop-color:#02151C"/>
	</linearGradient>
	<path class="st0" d="M0.5,0C-3.67,273-7.83,546-12,819c253.02,54.31,573.07,100.59,944,102c390.66,1.48,726.2-47.24,988-104
		c-0.17-272.33-0.33-544.67-0.5-817C1279.83,0,640.17,0,0.5,0z"/>
	<linearGradient id="SVGID_2_" gradientUnits="userSpaceOnUse" x1="1669" y1="-213" x2="1669" y2="-213">
		<stop  offset="0" style="stop-color:#0D6583"/>
		<stop  offset="1" style="stop-color:#02151C"/>
	</linearGradient>
	<path class="st1" d="M1669-213"/>
</g>
<g id="lines">
	<path class="st2" d="M395.58-22.12L177.28,230.06c-10.93,12.63-30.02,14-42.65,3.07l-5.13-4.44c-12.63-10.93-14-30.02-3.07-42.65
		L344.73-66.14c10.93-12.63,30.02-14,42.65-3.07l5.13,4.44C405.13-53.84,406.51-34.75,395.58-22.12z"/>
	<path class="st2" d="M1707.95,804.58l-218.29,252.19c-10.93,12.63-30.02,14-42.65,3.07l0,0c-12.63-10.93-14-30.02-3.07-42.65
		L1662.23,765c10.93-12.63,30.02-14,42.65-3.07l0,0C1717.51,772.86,1718.88,791.95,1707.95,804.58z"/>
	<path class="st2" d="M500.75-59.27l-241,278.41c-4.66,5.38-12.8,5.97-18.18,1.31l0,0c-5.38-4.66-5.97-12.8-1.31-18.18l241-278.41
		c4.66-5.38,12.8-5.97,18.18-1.31v0C504.82-72.79,505.41-64.65,500.75-59.27z"/>
	<path class="st2" d="M282.53-49.05l-241,278.41c-4.66,5.38-12.8,5.97-18.18,1.31l0,0c-5.38-4.66-5.97-12.8-1.31-18.18l241-278.41
		c4.66-5.38,12.8-5.97,18.18-1.31l0,0C286.61-62.58,287.19-54.44,282.53-49.05z"/>
	<path class="st2" d="M413.43,681.35L195.14,933.54c-10.93,12.63-30.02,14-42.65,3.07l0,0c-12.63-10.93-14-30.02-3.07-42.65
		l218.29-252.19c10.93-12.63,30.02-14,42.65-3.07h0C422.99,649.63,424.36,668.72,413.43,681.35z"/>
	<path class="st2" d="M1169.4-68.49L951.1,183.7c-10.93,12.63-30.02,14-42.65,3.07l0,0c-12.63-10.93-14-30.02-3.07-42.65
		l218.29-252.19c10.93-12.63,30.02-14,42.65-3.07l0,0C1178.95-100.21,1180.33-81.12,1169.4-68.49z"/>
	<path class="st2" d="M1263.93-87.1l-235.8,272.41c-6.1,7.04-16.75,7.81-23.79,1.71l0,0c-7.04-6.1-7.81-16.75-1.71-23.79
		l235.8-272.41c6.1-7.04,16.75-7.81,23.79-1.71v0C1269.26-104.79,1270.03-94.14,1263.93-87.1z"/>
	<path class="st2" d="M300.19,685.69L68.37,953.5c-7.19,8.31-19.76,9.22-28.08,2.02h0c-8.31-7.19-9.22-19.76-2.02-28.08
		l231.82-267.81c7.19-8.31,19.76-9.22,28.08-2.02h0C306.48,664.81,307.38,677.37,300.19,685.69z"/>
	<path class="st2" d="M1959.57,658.03l-218.29,252.19c-10.93,12.63-30.02,14-42.65,3.07h0c-12.63-10.93-14-30.02-3.07-42.65
		l218.29-252.19c10.93-12.63,30.02-14,42.65-3.07v0C1969.12,626.31,1970.5,645.41,1959.57,658.03z"/>
</g>
</svg>
