<?xml version="1.0" encoding="utf-8"?>
<!-- Generator: Adobe Illustrator 23.0.6, SVG Export Plug-In . SVG Version: 6.00 Build 0)  -->
<svg version="1.1" id="Layer_1" xmlns="http://www.w3.org/2000/svg" xmlns:xlink="http://www.w3.org/1999/xlink" x="0px" y="0px"
	 viewBox="0 0 1366 768" style="enable-background:new 0 0 1366 768;" xml:space="preserve">
<style type="text/css">
	.st0{opacity:0.51;fill:#42CDCA;enable-background:new    ;}
	.st1{opacity:0.68;fill:#E42C76;enable-background:new    ;}
</style>
<path class="st0" d="M1133,106.31c10.8,61.65,86.37,80.15,88.75,158.97c0.85,27.95,3.25,107.87-115.53,149.37
	c-83.63,29.23-187.34,25.43-212.57,24.51c-137.5-5.03-159.21-44.81-245.94-43.11c-153.13,3-172.96,128.72-341.47,145.03
	C169.32,554.33,4.78,488.52-51.38,421.28c-34.43-41.23-0.08-49.44-5.89-130.94c-9.68-136.24-110.19-177.36-79.5-295.08
	c8.04-30.85,22.11-55.49,31.75-70.38c475.6-5.93,951.2-11.87,1426.8-17.8C1152.4-5.43,1125.06,61.05,1133,106.31z"/>
<path class="st1" d="M1410.98-80.98c9.79,54.48,4.99,122.76-41.11,197.5c-46.65,75.63-96.8,156.95-249.5,207.95
	c-87.56,29.24-150.65,29.09-255.4,76.01c-65.42,29.31-70.28,42.57-136.06,65.61c-50.55,17.71-141.94,49.7-251.43,43.96
	c-102.13-5.35-192.85-42.1-229.05-84.31c-58.27-67.96,62.39-106.26,10.88-183.14c-28.94-43.2-62.71-24.64-172.84-105.97
	C-6.56,67.94-8.2,35.7-115.24-22c-56.94-30.7-75.64-31.9-72.15-40.15c21.26-50.16,725.39-36.46,1350.24-24.29
	C1267.24-84.42,1353.32-82.4,1410.98-80.98z"/>
</svg>
