<svg version="1.1" id="el_4o_X9ZGdy" xmlns="http://www.w3.org/2000/svg" xmlns:xlink="http://www.w3.org/1999/xlink" x="0px" y="0px" viewBox="0 0 1366 768" style="enable-background:new 0 0 1366 768;" xml:space="preserve"><style>@-webkit-keyframes kf_el_o4NB59spxTZy_an_Bp0rGtzZX{0%{opacity: 0.5;}48.89%{opacity: 1;}100%{opacity: 0.5;}}@keyframes kf_el_o4NB59spxTZy_an_Bp0rGtzZX{0%{opacity: 0.5;}48.89%{opacity: 1;}100%{opacity: 0.5;}}@-webkit-keyframes kf_el_kTErzGe3fLgs_an_VXBKfSvT6{0%{opacity: 0.5;}48.89%{opacity: 1;}100%{opacity: 0.5;}}@keyframes kf_el_kTErzGe3fLgs_an_VXBKfSvT6{0%{opacity: 0.5;}48.89%{opacity: 1;}100%{opacity: 0.5;}}@-webkit-keyframes kf_el_36C6KivRRgj_an_xoRSke-7q{0%{opacity: 0.5;}48.89%{opacity: 1;}100%{opacity: 0.5;}}@keyframes kf_el_36C6KivRRgj_an_xoRSke-7q{0%{opacity: 0.5;}48.89%{opacity: 1;}100%{opacity: 0.5;}}@-webkit-keyframes kf_el_VxrJXkx-TSl_an_0VyVl6Swe{0%{opacity: 0.5;}48.89%{opacity: 1;}100%{opacity: 0.5;}}@keyframes kf_el_VxrJXkx-TSl_an_0VyVl6Swe{0%{opacity: 0.5;}48.89%{opacity: 1;}100%{opacity: 0.5;}}@-webkit-keyframes kf_el_nNh3VwdKtlC_an_jqn4thP0n{0%{opacity: 0.5;}48.89%{opacity: 1;}100%{opacity: 0.5;}}@keyframes kf_el_nNh3VwdKtlC_an_jqn4thP0n{0%{opacity: 0.5;}48.89%{opacity: 1;}100%{opacity: 0.5;}}@-webkit-keyframes kf_el_QzFdfyAlR6T_an_Ja5BHLKvG{0%{opacity: 0.5;}48.89%{opacity: 1;}100%{opacity: 0.5;}}@keyframes kf_el_QzFdfyAlR6T_an_Ja5BHLKvG{0%{opacity: 0.5;}48.89%{opacity: 1;}100%{opacity: 0.5;}}@-webkit-keyframes kf_el_JoZ-v2h-fv6_an_atiuzFtPW{0%{opacity: 0.5;}48.89%{opacity: 1;}100%{opacity: 0.5;}}@keyframes kf_el_JoZ-v2h-fv6_an_atiuzFtPW{0%{opacity: 0.5;}48.89%{opacity: 1;}100%{opacity: 0.5;}}@-webkit-keyframes kf_el_qbh0uCHnPxD_an_XhU1DyojZ{0%{opacity: 0.5;}48.89%{opacity: 1;}100%{opacity: 0.5;}}@keyframes kf_el_qbh0uCHnPxD_an_XhU1DyojZ{0%{opacity: 0.5;}48.89%{opacity: 1;}100%{opacity: 0.5;}}@-webkit-keyframes kf_el_GJjXfHJr6Mu_an_Niea5Msed{0%{opacity: 0.5;}48.89%{opacity: 1;}100%{opacity: 0.5;}}@keyframes kf_el_GJjXfHJr6Mu_an_Niea5Msed{0%{opacity: 0.5;}48.89%{opacity: 1;}100%{opacity: 0.5;}}@-webkit-keyframes kf_el_GusbAASjp24_an_Et7ihsudZ{0%{opacity: 0.5;}48.89%{opacity: 1;}100%{opacity: 0.5;}}@keyframes kf_el_GusbAASjp24_an_Et7ihsudZ{0%{opacity: 0.5;}48.89%{opacity: 1;}100%{opacity: 0.5;}}@-webkit-keyframes kf_el_6IKysT8-aod_an_FjdIfCfvd{0%{opacity: 0.5;}48.89%{opacity: 1;}100%{opacity: 0.5;}}@keyframes kf_el_6IKysT8-aod_an_FjdIfCfvd{0%{opacity: 0.5;}48.89%{opacity: 1;}100%{opacity: 0.5;}}@-webkit-keyframes kf_el_WL7VYCOb9PT_an_4pcPMtomk{0%{opacity: 0.5;}48.89%{opacity: 1;}100%{opacity: 0.5;}}@keyframes kf_el_WL7VYCOb9PT_an_4pcPMtomk{0%{opacity: 0.5;}48.89%{opacity: 1;}100%{opacity: 0.5;}}@-webkit-keyframes kf_el__6J7Vr2c0Jy_an_df9k-JPFi{0%{opacity: 0.5;}48.89%{opacity: 1;}100%{opacity: 0.5;}}@keyframes kf_el__6J7Vr2c0Jy_an_df9k-JPFi{0%{opacity: 0.5;}48.89%{opacity: 1;}100%{opacity: 0.5;}}@-webkit-keyframes kf_el_CDZCUJYuSO_an_5umFNd9Lu{0%{opacity: 1;}48.89%{opacity: 0.5;}98.89%{opacity: 1;}100%{opacity: 1;}}@keyframes kf_el_CDZCUJYuSO_an_5umFNd9Lu{0%{opacity: 1;}48.89%{opacity: 0.5;}98.89%{opacity: 1;}100%{opacity: 1;}}#el_4o_X9ZGdy *{-webkit-animation-duration: 3s;animation-duration: 3s;-webkit-animation-iteration-count: infinite;animation-iteration-count: infinite;-webkit-animation-timing-function: cubic-bezier(0, 0, 1, 1);animation-timing-function: cubic-bezier(0, 0, 1, 1);}#el_UGUh2NCcjL{fill: url(#SVGID_1_);}#el_uuZlPfoWfl{fill: none;-webkit-transform: matrix(0.6671, -0.745, 0.745, 0.6671, -68.2446, 1304.7981);transform: matrix(0.6671, -0.745, 0.745, 0.6671, -68.2446, 1304.7981);}#el_nXmcRSfDe4{fill: none;stroke: #FFFFFF;stroke-width: 0.555;stroke-miterlimit: 10;}#el_RR_FOvLRTc{fill: none;-webkit-transform: matrix(0.9674, -0.2534, 0.2534, 0.9674, -149.232, 351.542);transform: matrix(0.9674, -0.2534, 0.2534, 0.9674, -149.232, 351.542);}#el_NViie97yMr{fill: none;stroke: #FFFFFF;stroke-width: 0.5523;stroke-miterlimit: 10;}#el_jm3qaqI7ko{fill: none;-webkit-transform: matrix(0.1174, -0.9931, 0.9931, 0.1174, 349.376, 1859.83);transform: matrix(0.1174, -0.9931, 0.9931, 0.1174, 349.376, 1859.83);}#el_nQ3Ljas5Qb{fill: none;stroke: #FFFFFF;stroke-width: 0.4021;stroke-miterlimit: 10;}#el_VuxQ-fUbQ0P{fill: none;-webkit-transform: matrix(0.749, -0.6626, 0.6626, 0.749, -91.7328, 1084.9301);transform: matrix(0.749, -0.6626, 0.6626, 0.749, -91.7328, 1084.9301);}#el_ykz_It0mvFy{fill: none;stroke: #FFFFFF;stroke-width: 0.8192;stroke-miterlimit: 10;}#el_U-ql7tgcZHd{fill: none;-webkit-transform: matrix(0.0328, -0.9995, 0.9995, 0.0328, 491.9375, 1833.554);transform: matrix(0.0328, -0.9995, 0.9995, 0.0328, 491.9375, 1833.554);}#el_4q6uaVoSrwf{fill: none;stroke: #FFFFFF;stroke-width: 0.9026;stroke-miterlimit: 10;}#el_B8vlzZNLiNi{fill: none;-webkit-transform: matrix(0.8028, -0.5962, 0.5962, 0.8028, -134.9629, 845.5168);transform: matrix(0.8028, -0.5962, 0.5962, 0.8028, -134.9629, 845.5168);}#el_MP13-QoAEXV{fill: none;stroke: #FFFFFF;stroke-width: 0.9365;stroke-miterlimit: 10;}#el_jw5iNe2FiVo{fill: none;-webkit-transform: matrix(0.3136, -0.9496, 0.9496, 0.3136, 412.7649, 1651.428);transform: matrix(0.3136, -0.9496, 0.9496, 0.3136, 412.7649, 1651.428);}#el_cHxmFHOVenY{fill: none;stroke: #FFFFFF;stroke-width: 0.4559;stroke-miterlimit: 10;}#el_9zBdN9IiPQR{fill: none;-webkit-transform: matrix(0.4848, -0.8746, 0.8746, 0.4848, 117.5451, 1339.8197);transform: matrix(0.4848, -0.8746, 0.8746, 0.4848, 117.5451, 1339.8197);}#el_blBUzSj6UzX{fill: none;stroke: #FFFFFF;stroke-width: 0.9784;stroke-miterlimit: 10;}#el_ggCUz3mk531{fill: none;-webkit-transform: matrix(0.5035, -0.864, 0.864, 0.5035, 273.2246, 1384.976);transform: matrix(0.5035, -0.864, 0.864, 0.5035, 273.2246, 1384.976);}#el_Kiz4dzLSkUY{fill: none;stroke: #FFFFFF;stroke-width: 0.606;stroke-miterlimit: 10;}#el_EPMJTWQiYTW{fill: none;-webkit-transform: matrix(0.9553, -0.2956, 0.2956, 0.9553, -61.1951, 418.8932);transform: matrix(0.9553, -0.2956, 0.2956, 0.9553, -61.1951, 418.8932);}#el_HoZmXkxeTOo{fill: none;stroke: #FFFFFF;stroke-width: 0.665;stroke-miterlimit: 10;}#el_4ZAoLo5Zmi7{fill: none;-webkit-transform: matrix(0.1492, -0.9888, 0.9888, 0.1492, 666.5529, 1628.1467);transform: matrix(0.1492, -0.9888, 0.9888, 0.1492, 666.5529, 1628.1467);}#el_vSHgzIjLXku{fill: none;stroke: #FFFFFF;stroke-width: 0.5921;stroke-miterlimit: 10;}#el_ggmoIQF_M9R{fill: none;-webkit-transform: matrix(0.9918, -0.1276, 0.1276, 0.9918, -44.2868, 157.7845);transform: matrix(0.9918, -0.1276, 0.1276, 0.9918, -44.2868, 157.7845);}#el_8WumGqoXjVE{fill: none;stroke: #FFFFFF;stroke-width: 0.6514;stroke-miterlimit: 10;}#el_FFmRfQrwvBD{fill: none;-webkit-transform: matrix(0.4724, -0.8814, 0.8814, 0.4724, 397.8609, 1311.2169);transform: matrix(0.4724, -0.8814, 0.8814, 0.4724, 397.8609, 1311.2169);}#el_kXCQeu0YBJp{fill: none;stroke: #FFFFFF;stroke-width: 0.3868;stroke-miterlimit: 10;}#el_4M8pgwr5km_{fill: none;-webkit-transform: matrix(0.8829, -0.4696, 0.4696, 0.8829, -3.7544, 607.0006);transform: matrix(0.8829, -0.4696, 0.4696, 0.8829, -3.7544, 607.0006);}#el_-luGHhJ0k0u{fill: none;stroke: #FFFFFF;stroke-width: 0.7505;stroke-miterlimit: 10;}#el_5zyCwmg4GOR{fill: none;-webkit-transform: matrix(0.3862, -0.9224, 0.9224, 0.3862, 496.8073, 1256.33);transform: matrix(0.3862, -0.9224, 0.9224, 0.3862, 496.8073, 1256.33);}#el_wiizY_UtQ3M{fill: none;stroke: #FFFFFF;stroke-width: 0.7949;stroke-miterlimit: 10;}#el_1S9h5q9uA8j{fill: none;-webkit-transform: matrix(0.9873, -0.1588, 0.1588, 0.9873, -63.4937, 169.1806);transform: matrix(0.9873, -0.1588, 0.1588, 0.9873, -63.4937, 169.1806);}#el_6W7pl122GzS{fill: none;stroke: #FFFFFF;stroke-width: 0.3826;stroke-miterlimit: 10;}#el_OSFEuIyMBc8{fill: none;-webkit-transform: matrix(0.412, -0.9112, 0.9112, 0.412, 262.5837, 1166.4941);transform: matrix(0.412, -0.9112, 0.9112, 0.412, 262.5837, 1166.4941);}#el_dZl7YznCMAI{fill: none;stroke: #FFFFFF;stroke-width: 0.7498;stroke-miterlimit: 10;}#el_iGZTfEQLZoh{fill: none;-webkit-transform: matrix(0.3077, -0.9515, 0.9515, 0.3077, 511.4912, 1151.2784);transform: matrix(0.3077, -0.9515, 0.9515, 0.3077, 511.4912, 1151.2784);}#el_j2SrQ1q3idd{fill: none;stroke: #FFFFFF;stroke-width: 0.9595;stroke-miterlimit: 10;}#el_m45rdeUsTV0{fill: none;-webkit-transform: matrix(0.2036, -0.9791, 0.9791, 0.2036, 492.4013, 1237.6296);transform: matrix(0.2036, -0.9791, 0.9791, 0.2036, 492.4013, 1237.6296);}#el_9rJqiPpqJmg{fill: none;stroke: #FFFFFF;stroke-width: 0.5831;stroke-miterlimit: 10;}#el_s_h6sW-uZdB{fill: none;-webkit-transform: matrix(0.7391, -0.6736, 0.6736, 0.7391, 12.9547, 755.047);transform: matrix(0.7391, -0.6736, 0.6736, 0.7391, 12.9547, 755.047);}#el_uzyY5ZABH-M{fill: none;stroke: #FFFFFF;stroke-width: 0.8545;stroke-miterlimit: 10;}#el_8fCpKywC0To{fill: none;-webkit-transform: matrix(0.5062, -0.8624, 0.8624, 0.5062, 300.1337, 925.0237);transform: matrix(0.5062, -0.8624, 0.8624, 0.5062, 300.1337, 925.0237);}#el_6-EYzXDebFt{fill: none;stroke: #FFFFFF;stroke-width: 0.526;stroke-miterlimit: 10;}#el_15YQExTNvU3{fill: none;-webkit-transform: matrix(0.8271, -0.5621, 0.5621, 0.8271, -110.3164, 604.834);transform: matrix(0.8271, -0.5621, 0.5621, 0.8271, -110.3164, 604.834);}#el_FMNPMEPZAxw{fill: none;stroke: #FFFFFF;stroke-width: 0.9833;stroke-miterlimit: 10;}#el_i7MHR5j8zwm{fill: none;-webkit-transform: matrix(0.9151, -0.4032, 0.4032, 0.9151, -100.3695, 401.1114);transform: matrix(0.9151, -0.4032, 0.4032, 0.9151, -100.3695, 401.1114);}#el_2MnVQPQPYUP{fill: none;stroke: #FFFFFF;stroke-width: 0.7101;stroke-miterlimit: 10;}#el_0hdgrP2MCWK{fill: none;-webkit-transform: matrix(0.0249, -0.9997, 0.9997, 0.0249, 492.6011, 1216.1924);transform: matrix(0.0249, -0.9997, 0.9997, 0.0249, 492.6011, 1216.1924);}#el_3267sCGKu3t{fill: none;stroke: #FFFFFF;stroke-width: 0.596;stroke-miterlimit: 10;}#el_HH52IKU9E9j{fill: none;-webkit-transform: matrix(0.1824, -0.9832, 0.9832, 0.1824, 433.9253, 987.2123);transform: matrix(0.1824, -0.9832, 0.9832, 0.1824, 433.9253, 987.2123);}#el_kJVHIzXr-GD{fill: none;stroke: #FFFFFF;stroke-width: 0.9796;stroke-miterlimit: 10;}#el_WUBeFyBIYuJ{fill: none;-webkit-transform: matrix(0.5638, -0.8259, 0.8259, 0.5638, -4.8221, 803.0832);transform: matrix(0.5638, -0.8259, 0.8259, 0.5638, -4.8221, 803.0832);}#el_pnZJRqMPMDF{fill: none;stroke: #FFFFFF;stroke-width: 0.5314;stroke-miterlimit: 10;}#el_-D4yS8diAJ0{fill: none;-webkit-transform: matrix(0.726, -0.6877, 0.6877, 0.726, -55.287, 597.0429);transform: matrix(0.726, -0.6877, 0.6877, 0.726, -55.287, 597.0429);}#el_lg2DgbHO5Qz{fill: none;stroke: #FFFFFF;stroke-width: 0.4358;stroke-miterlimit: 10;}#el_gKQSekOF_AI{fill: none;-webkit-transform: matrix(0.6119, -0.7909, 0.7909, 0.6119, -95.8434, 662.5914);transform: matrix(0.6119, -0.7909, 0.7909, 0.6119, -95.8434, 662.5914);}#el_lZcs7YMMPp-{fill: none;stroke: #FFFFFF;stroke-width: 0.8685;stroke-miterlimit: 10;}#el_M02RFMQbE5X{fill: none;-webkit-transform: matrix(0.3857, -0.9226, 0.9226, 0.3857, 109.7858, 797.9434);transform: matrix(0.3857, -0.9226, 0.9226, 0.3857, 109.7858, 797.9434);}#el_iIkjEvrWvMd{fill: none;stroke: #FFFFFF;stroke-width: 0.5686;stroke-miterlimit: 10;}#el_NoptAbW958v{fill: none;-webkit-transform: matrix(0.9982, -0.0596, 0.0596, 0.9982, -19.3944, 33.3892);transform: matrix(0.9982, -0.0596, 0.0596, 0.9982, -19.3944, 33.3892);}#el_QUZPx883yfN{fill: none;stroke: #FFFFFF;stroke-width: 0.5355;stroke-miterlimit: 10;}#el_-VOLT3Hlmy4{fill: none;-webkit-transform: matrix(0.5304, -0.8478, 0.8478, 0.5304, 88.0707, 625.5345);transform: matrix(0.5304, -0.8478, 0.8478, 0.5304, 88.0707, 625.5345);}#el_q3pknWBoEGF{fill: none;stroke: #FFFFFF;stroke-width: 0.6024;stroke-miterlimit: 10;}#el_PjG_vJWeUIu{fill: none;-webkit-transform: matrix(0.9168, -0.3994, 0.3994, 0.9168, -52.3922, 232.3081);transform: matrix(0.9168, -0.3994, 0.3994, 0.9168, -52.3922, 232.3081);}#el_V2n6m6ld1QI{fill: none;stroke: #FFFFFF;stroke-width: 0.4343;stroke-miterlimit: 10;}#el_yT9_PRUz3dN{fill: none;-webkit-transform: matrix(0.8856, -0.4645, 0.4645, 0.8856, 22.0991, 304.5749);transform: matrix(0.8856, -0.4645, 0.4645, 0.8856, 22.0991, 304.5749);}#el_HigqcSNqR5g{fill: none;stroke: #FFFFFF;stroke-width: 0.9084;stroke-miterlimit: 10;}#el_FhrAJJeB0-s{fill: none;-webkit-transform: matrix(0.9656, -0.2601, 0.2601, 0.9656, -39.2406, 130.5905);transform: matrix(0.9656, -0.2601, 0.2601, 0.9656, -39.2406, 130.5905);}#el_XNbdGlef-Sz{fill: none;stroke: #FFFFFF;stroke-width: 0.9049;stroke-miterlimit: 10;}#el_ZC2s2XQGL0Q{fill: none;-webkit-transform: matrix(0.7796, -0.6263, 0.6263, 0.7796, 18.1761, 342.6456);transform: matrix(0.7796, -0.6263, 0.6263, 0.7796, 18.1761, 342.6456);}#el_fANqGFpivgj{fill: none;stroke: #FFFFFF;stroke-width: 0.8412;stroke-miterlimit: 10;}#el_j75GHNbeZ-W{fill: none;-webkit-transform: matrix(0.9634, -0.2681, 0.2681, 0.9634, -60.1088, 140.2603);transform: matrix(0.9634, -0.2681, 0.2681, 0.9634, -60.1088, 140.2603);}#el_-8gSaGaYirg{fill: none;stroke: #FFFFFF;stroke-width: 0.6645;stroke-miterlimit: 10;}#el_N3iyno07uCu{fill: none;-webkit-transform: matrix(0.7341, -0.679, 0.679, 0.7341, 105.3703, 255.1929);transform: matrix(0.7341, -0.679, 0.679, 0.7341, 105.3703, 255.1929);}#el_kqV2IQJzHO3{fill: none;stroke: #FFFFFF;stroke-width: 0.9881;stroke-miterlimit: 10;}#el_eV5YiBU9DtH{fill: none;-webkit-transform: matrix(0.6777, -0.7354, 0.7354, 0.6777, 10.5929, 336.1352);transform: matrix(0.6777, -0.7354, 0.7354, 0.6777, 10.5929, 336.1352);}#el_QHkL7kZcWuG{fill: none;stroke: #FFFFFF;stroke-width: 0.6494;stroke-miterlimit: 10;}#el_a5zQ-USmasd{fill: none;-webkit-transform: matrix(0.7779, -0.6284, 0.6284, 0.7779, 32.0101, 205.8261);transform: matrix(0.7779, -0.6284, 0.6284, 0.7779, 32.0101, 205.8261);}#el_eWbqxTUdwM1{fill: none;stroke: #FFFFFF;stroke-width: 0.5965;stroke-miterlimit: 10;}#el_GQGD_abHAe9{fill: none;-webkit-transform: matrix(0.7537, -0.6572, 0.6572, 0.7537, -74.1184, 288.5283);transform: matrix(0.7537, -0.6572, 0.6572, 0.7537, -74.1184, 288.5283);}#el_Kbw4KV_jCvD{fill: none;stroke: #FFFFFF;stroke-width: 0.4673;stroke-miterlimit: 10;}#el_-7NGI4KEQFa{fill: none;-webkit-transform: matrix(0.16, -0.9871, 0.9871, 0.16, 7.6747, 514.2405);transform: matrix(0.16, -0.9871, 0.9871, 0.16, 7.6747, 514.2405);}#el_QeRdb94mlDU{fill: none;stroke: #FFFFFF;stroke-width: 0.4661;stroke-miterlimit: 10;}#el_B_3x70oBQbu{fill: none;-webkit-transform: matrix(0.4997, -0.8662, 0.8662, 0.4997, -52.9099, 298.4813);transform: matrix(0.4997, -0.8662, 0.8662, 0.4997, -52.9099, 298.4813);}#el_6nviqDvpPQC{fill: none;stroke: #FFFFFF;stroke-width: 0.9676;stroke-miterlimit: 10;}#el_jBUGmDCAdFQ{fill: none;-webkit-transform: matrix(0.8757, -0.4829, 0.4829, 0.8757, -51.0347, 117.3204);transform: matrix(0.8757, -0.4829, 0.4829, 0.8757, -51.0347, 117.3204);}#el__cOLxM-dpWE{fill: none;stroke: #FFFFFF;stroke-width: 0.9281;stroke-miterlimit: 10;}#el_ptLwgIVFDbV{fill: none;-webkit-transform: matrix(0.0511, -0.9987, 0.9987, 0.0511, -158.6422, 482.5265);transform: matrix(0.0511, -0.9987, 0.9987, 0.0511, -158.6422, 482.5265);}#el_9Bl9QXBfVQw{fill: none;stroke: #FFFFFF;stroke-width: 0.9625;stroke-miterlimit: 10;}#el_fkLHPDC5Fja{fill: none;-webkit-transform: matrix(0.7208, -0.6932, 0.6932, 0.7208, -4.3411, 152.5612);transform: matrix(0.7208, -0.6932, 0.6932, 0.7208, -4.3411, 152.5612);}#el_qpO8LxLApYG{fill: none;stroke: #FFFFFF;stroke-width: 0.4814;stroke-miterlimit: 10;}#el_dG68d2xJmLK{fill: none;-webkit-transform: matrix(0.9422, -0.335, 0.335, 0.9422, -109.9756, 34.9364);transform: matrix(0.9422, -0.335, 0.335, 0.9422, -109.9756, 34.9364);}#el_HmkHtEUQDR7{fill: none;stroke: #FFFFFF;stroke-width: 0.5477;stroke-miterlimit: 10;}#el_ECXgYpkXAXj{fill: none;-webkit-transform: matrix(0.103, -0.9947, 0.9947, 0.103, -189.43, 264.4448);transform: matrix(0.103, -0.9947, 0.9947, 0.103, -189.43, 264.4448);}#el_Lc6BzVs2pQB{fill: none;stroke: #FFFFFF;stroke-width: 0.8408;stroke-miterlimit: 10;}#el_JtXkgl1BrzE{fill: none;-webkit-transform: matrix(0.9924, -0.1228, 0.1228, 0.9924, -17.5613, 12.5761);transform: matrix(0.9924, -0.1228, 0.1228, 0.9924, -17.5613, 12.5761);}#el_hjCeKgZIa3C{fill: none;stroke: #FFFFFF;stroke-width: 0.7341;stroke-miterlimit: 10;}#el_PeYA5Nrz9ic{fill: none;-webkit-transform: matrix(0.5093, -0.8606, 0.8606, 0.5093, -50.7252, 149.2364);transform: matrix(0.5093, -0.8606, 0.8606, 0.5093, -50.7252, 149.2364);}#el_q4Hmvr_kTqp{fill: none;stroke: #FFFFFF;stroke-width: 0.7794;stroke-miterlimit: 10;}#el_d4dGTFTPmJf{fill: none;-webkit-transform: matrix(0.3745, -0.9272, 0.9272, 0.3745, -62.3594, 122.4084);transform: matrix(0.3745, -0.9272, 0.9272, 0.3745, -62.3594, 122.4084);}#el_lY6gokpoBRY{fill: none;stroke: #FFFFFF;stroke-width: 0.7383;stroke-miterlimit: 10;}#el_XfDRBb3wPXS{fill: none;-webkit-transform: matrix(0.6024, -0.7982, 0.7982, 0.6024, -114.3176, -42.9293);transform: matrix(0.6024, -0.7982, 0.7982, 0.6024, -114.3176, -42.9293);}#el_v5xxpP2zteW{fill: none;stroke: #FFFFFF;stroke-width: 0.5585;stroke-miterlimit: 10;}#el_4inHkEw2BJT{fill: none;-webkit-transform: matrix(0.556, -0.8312, 0.8312, 0.556, -8.4345, 90.7337);transform: matrix(0.556, -0.8312, 0.8312, 0.556, -8.4345, 90.7337);}#el_gjdb0n6gqne{fill: none;stroke: #FFFFFF;stroke-width: 0.4683;stroke-miterlimit: 10;}#el_A2sl-yHPdH3{fill: none;-webkit-transform: matrix(0.0546, -0.9985, 0.9985, 0.0546, 684.3527, 840.6695);transform: matrix(0.0546, -0.9985, 0.9985, 0.0546, 684.3527, 840.6695);}#el_SsE3siaqTQD{fill: none;stroke: #FFFFFF;stroke-width: 0.7242;stroke-miterlimit: 10;}#el_ByW6fCqD4jJ{fill: none;-webkit-transform: matrix(0.1365, -0.9906, 0.9906, 0.1365, 352.2021, 1577.8678);transform: matrix(0.1365, -0.9906, 0.9906, 0.1365, 352.2021, 1577.8678);}#el_fHcp-H_kj_M{fill: none;stroke: #FFFFFF;stroke-width: 0.7247;stroke-miterlimit: 10;}#el_d-ESC1N2iMe{fill: none;-webkit-transform: matrix(0.9949, -0.1011, 0.1011, 0.9949, -47.5482, 92.5433);transform: matrix(0.9949, -0.1011, 0.1011, 0.9949, -47.5482, 92.5433);}#el_ghHp0tHOf8X{fill: none;stroke: #FFFFFF;stroke-width: 0.5392;stroke-miterlimit: 10;}#el_s5ColZ5ZHtQ{fill: none;-webkit-transform: matrix(0.2357, -0.9718, 0.9718, 0.2357, 75.4162, 1344.9603);transform: matrix(0.2357, -0.9718, 0.9718, 0.2357, 75.4162, 1344.9603);}#el_572RgWIvagA{fill: none;stroke: #FFFFFF;stroke-width: 0.8843;stroke-miterlimit: 10;}#el_URsVATWaAJw{fill: none;-webkit-transform: matrix(0.6787, -0.7344, 0.7344, 0.6787, -273.3454, 223.9463);transform: matrix(0.6787, -0.7344, 0.7344, 0.6787, -273.3454, 223.9463);}#el_1X_9sN3QY4w{fill: none;stroke: #FFFFFF;stroke-width: 0.7675;stroke-miterlimit: 10;}#el_SyY84cPsUaR{fill: none;-webkit-transform: matrix(0.5278, -0.8494, 0.8494, 0.5278, -392.1991, 302.4705);transform: matrix(0.5278, -0.8494, 0.8494, 0.5278, -392.1991, 302.4705);}#el_FsM7JYK2CUi{fill: none;stroke: #FFFFFF;stroke-width: 0.424;stroke-miterlimit: 10;}#el_hu18keeIC60{fill: none;-webkit-transform: matrix(0.723, -0.6909, 0.6909, 0.723, -391.7025, 238.0122);transform: matrix(0.723, -0.6909, 0.6909, 0.723, -391.7025, 238.0122);}#el_Bqmf7z_JMaz{fill: none;stroke: #FFFFFF;stroke-width: 0.7428;stroke-miterlimit: 10;}#el_yKW43abxvIE{fill: none;-webkit-transform: matrix(0.1966, -0.9805, 0.9805, 0.1966, 510.9855, 1140.1641);transform: matrix(0.1966, -0.9805, 0.9805, 0.1966, 510.9855, 1140.1641);}#el_cgL_NL1BKv1{fill: #E42C76;}#el_sxhIdHp4Aex{fill: none;-webkit-transform: matrix(0.2038, -0.979, 0.979, 0.2038, 484.9952, 1369.9669);transform: matrix(0.2038, -0.979, 0.979, 0.2038, 484.9952, 1369.9669);}#el_AFo9woB9Q_H{fill: #E42C76;}#el_uVi7M8xdbNA{fill: none;-webkit-transform: matrix(0.5266, -0.8501, 0.8501, 0.5266, 1.5218, 1115.1868);transform: matrix(0.5266, -0.8501, 0.8501, 0.5266, 1.5218, 1115.1868);}#el_zYs6hu75wbs{fill: #E42C76;}#el_i2aV3BSVsQP{fill: none;-webkit-transform: matrix(0.6475, -0.7621, 0.7621, 0.6475, 198.4454, 730.6534);transform: matrix(0.6475, -0.7621, 0.7621, 0.6475, 198.4454, 730.6534);}#el_ehZLeTjPaLZ{fill: #E42C76;}#el_lX5-NcycS_h{fill: none;-webkit-transform: matrix(0.0315, -0.9995, 0.9995, 0.0315, 594.7519, 1074.7798);transform: matrix(0.0315, -0.9995, 0.9995, 0.0315, 594.7519, 1074.7798);}#el_-mHM9E3ISos{fill: #E42C76;}#el_nJmQL4vK9Tl{fill: none;-webkit-transform: matrix(0.5773, -0.8165, 0.8165, 0.5773, 80.614, 724.0549);transform: matrix(0.5773, -0.8165, 0.8165, 0.5773, 80.614, 724.0549);}#el_wK-NvSRNljR{fill: #E42C76;}#el__cnBRvzpsk5{fill: none;-webkit-transform: matrix(0.8594, -0.5112, 0.5112, 0.8594, 20.0357, 360.4702);transform: matrix(0.8594, -0.5112, 0.5112, 0.8594, 20.0357, 360.4702);}#el_Pyt4I-7XF4V{fill: #E42C76;}#el_8x1qPoHzoc3{fill: none;-webkit-transform: matrix(0.936, -0.3519, 0.3519, 0.936, -50.1964, 238.7508);transform: matrix(0.936, -0.3519, 0.3519, 0.936, -50.1964, 238.7508);}#el_zoa4FdQMMor{fill: #E42C76;}#el_18mllG8ygC2{fill: none;-webkit-transform: matrix(0.9454, -0.3259, 0.3259, 0.9454, -61.757, 190.2969);transform: matrix(0.9454, -0.3259, 0.3259, 0.9454, -61.757, 190.2969);}#el_4YWrVEa1fOY{fill: #E42C76;}#el_rzE_eMasfYQ{fill: none;-webkit-transform: matrix(0.8861, -0.4636, 0.4636, 0.8861, -164.5186, 675.6948);transform: matrix(0.8861, -0.4636, 0.4636, 0.8861, -164.5186, 675.6948);}#el_jz9tZXiraJW{fill: #E42C76;}#el_zHbxyggcf3v{fill: none;-webkit-transform: matrix(0.4522, -0.8919, 0.8919, 0.4522, 188.6867, 1472.7701);transform: matrix(0.4522, -0.8919, 0.8919, 0.4522, 188.6867, 1472.7701);}#el_g40izC6Scer{fill: #E42C76;}#el_9r0zt2kT31Z{fill: none;-webkit-transform: matrix(0.5358, -0.8444, 0.8444, 0.5358, 150.9958, 1334.4777);transform: matrix(0.5358, -0.8444, 0.8444, 0.5358, 150.9958, 1334.4777);}#el_15rsJCGmuXE{fill: #E42C76;}#el_dxS_MxAd648{fill: none;-webkit-transform: matrix(0.1586, -0.9873, 0.9873, 0.1586, 479.8691, 1513.5637);transform: matrix(0.1586, -0.9873, 0.9873, 0.1586, 479.8691, 1513.5637);}#el_8oP7EDGdzTH{fill: #E42C76;}#el_y0LiHLNFHjkh{fill: none;-webkit-transform: matrix(0.8682, -0.4962, 0.4962, 0.8682, -191.4757, 608.796);transform: matrix(0.8682, -0.4962, 0.4962, 0.8682, -191.4757, 608.796);}#el_miUOaErbTWVb{fill: #E42C76;}#el_QdMb_IlLsFS6{fill: none;-webkit-transform: matrix(0.9084, -0.4181, 0.4181, 0.9084, -173.444, 462.2351);transform: matrix(0.9084, -0.4181, 0.4181, 0.9084, -173.444, 462.2351);}#el_DEJu5mNLTidW{fill: #E42C76;}#el_aTjXMXqD8bOG{fill: none;-webkit-transform: matrix(0.4101, -0.912, 0.912, 0.4101, 105.984, 1150.2616);transform: matrix(0.4101, -0.912, 0.912, 0.4101, 105.984, 1150.2616);}#el_PLgHLdgrWL3K{fill: #E42C76;}#el_8e-EZkwL6lP5{fill: none;-webkit-transform: matrix(0.8627, -0.5058, 0.5058, 0.8627, 57.9454, 677.3181);transform: matrix(0.8627, -0.5058, 0.5058, 0.8627, 57.9454, 677.3181);}#el_u2JaN7gkVoPR{fill: #E42C76;}#el_CDZCUJYuSO{-webkit-animation-fill-mode: backwards;animation-fill-mode: backwards;opacity: 1;-webkit-animation-name: kf_el_CDZCUJYuSO_an_5umFNd9Lu;animation-name: kf_el_CDZCUJYuSO_an_5umFNd9Lu;-webkit-animation-timing-function: cubic-bezier(0, 0, 1, 1);animation-timing-function: cubic-bezier(0, 0, 1, 1);}#el__6J7Vr2c0Jy{-webkit-animation-fill-mode: backwards;animation-fill-mode: backwards;opacity: 0.5;-webkit-animation-name: kf_el__6J7Vr2c0Jy_an_df9k-JPFi;animation-name: kf_el__6J7Vr2c0Jy_an_df9k-JPFi;-webkit-animation-timing-function: cubic-bezier(0, 0, 1, 1);animation-timing-function: cubic-bezier(0, 0, 1, 1);}#el_WL7VYCOb9PT{-webkit-animation-fill-mode: backwards;animation-fill-mode: backwards;opacity: 0.5;-webkit-animation-name: kf_el_WL7VYCOb9PT_an_4pcPMtomk;animation-name: kf_el_WL7VYCOb9PT_an_4pcPMtomk;-webkit-animation-timing-function: cubic-bezier(0, 0, 1, 1);animation-timing-function: cubic-bezier(0, 0, 1, 1);}#el_6IKysT8-aod{-webkit-animation-fill-mode: backwards;animation-fill-mode: backwards;opacity: 0.5;-webkit-animation-name: kf_el_6IKysT8-aod_an_FjdIfCfvd;animation-name: kf_el_6IKysT8-aod_an_FjdIfCfvd;-webkit-animation-timing-function: cubic-bezier(0, 0, 1, 1);animation-timing-function: cubic-bezier(0, 0, 1, 1);}#el_GusbAASjp24{-webkit-animation-fill-mode: backwards;animation-fill-mode: backwards;opacity: 0.5;-webkit-animation-name: kf_el_GusbAASjp24_an_Et7ihsudZ;animation-name: kf_el_GusbAASjp24_an_Et7ihsudZ;-webkit-animation-timing-function: cubic-bezier(0, 0, 1, 1);animation-timing-function: cubic-bezier(0, 0, 1, 1);}#el_GJjXfHJr6Mu{-webkit-animation-fill-mode: backwards;animation-fill-mode: backwards;opacity: 0.5;-webkit-animation-name: kf_el_GJjXfHJr6Mu_an_Niea5Msed;animation-name: kf_el_GJjXfHJr6Mu_an_Niea5Msed;-webkit-animation-timing-function: cubic-bezier(0, 0, 1, 1);animation-timing-function: cubic-bezier(0, 0, 1, 1);}#el_qbh0uCHnPxD{-webkit-animation-fill-mode: backwards;animation-fill-mode: backwards;opacity: 0.5;-webkit-animation-name: kf_el_qbh0uCHnPxD_an_XhU1DyojZ;animation-name: kf_el_qbh0uCHnPxD_an_XhU1DyojZ;-webkit-animation-timing-function: cubic-bezier(0, 0, 1, 1);animation-timing-function: cubic-bezier(0, 0, 1, 1);}#el_JoZ-v2h-fv6{-webkit-animation-fill-mode: backwards;animation-fill-mode: backwards;opacity: 0.5;-webkit-animation-name: kf_el_JoZ-v2h-fv6_an_atiuzFtPW;animation-name: kf_el_JoZ-v2h-fv6_an_atiuzFtPW;-webkit-animation-timing-function: cubic-bezier(0, 0, 1, 1);animation-timing-function: cubic-bezier(0, 0, 1, 1);}#el_QzFdfyAlR6T{-webkit-animation-fill-mode: backwards;animation-fill-mode: backwards;opacity: 0.5;-webkit-animation-name: kf_el_QzFdfyAlR6T_an_Ja5BHLKvG;animation-name: kf_el_QzFdfyAlR6T_an_Ja5BHLKvG;-webkit-animation-timing-function: cubic-bezier(0, 0, 1, 1);animation-timing-function: cubic-bezier(0, 0, 1, 1);}#el_nNh3VwdKtlC{-webkit-animation-fill-mode: backwards;animation-fill-mode: backwards;opacity: 0.5;-webkit-animation-name: kf_el_nNh3VwdKtlC_an_jqn4thP0n;animation-name: kf_el_nNh3VwdKtlC_an_jqn4thP0n;-webkit-animation-timing-function: cubic-bezier(0, 0, 1, 1);animation-timing-function: cubic-bezier(0, 0, 1, 1);}#el_VxrJXkx-TSl{-webkit-animation-fill-mode: backwards;animation-fill-mode: backwards;opacity: 0.5;-webkit-animation-name: kf_el_VxrJXkx-TSl_an_0VyVl6Swe;animation-name: kf_el_VxrJXkx-TSl_an_0VyVl6Swe;-webkit-animation-timing-function: cubic-bezier(0, 0, 1, 1);animation-timing-function: cubic-bezier(0, 0, 1, 1);}#el_36C6KivRRgj{-webkit-animation-fill-mode: backwards;animation-fill-mode: backwards;opacity: 0.5;-webkit-animation-name: kf_el_36C6KivRRgj_an_xoRSke-7q;animation-name: kf_el_36C6KivRRgj_an_xoRSke-7q;-webkit-animation-timing-function: cubic-bezier(0, 0, 1, 1);animation-timing-function: cubic-bezier(0, 0, 1, 1);}#el_kTErzGe3fLgs{-webkit-animation-fill-mode: backwards;animation-fill-mode: backwards;opacity: 0.5;-webkit-animation-name: kf_el_kTErzGe3fLgs_an_VXBKfSvT6;animation-name: kf_el_kTErzGe3fLgs_an_VXBKfSvT6;-webkit-animation-timing-function: cubic-bezier(0, 0, 1, 1);animation-timing-function: cubic-bezier(0, 0, 1, 1);}#el_o4NB59spxTZy{-webkit-animation-fill-mode: backwards;animation-fill-mode: backwards;opacity: 0.5;-webkit-animation-name: kf_el_o4NB59spxTZy_an_Bp0rGtzZX;animation-name: kf_el_o4NB59spxTZy_an_Bp0rGtzZX;-webkit-animation-timing-function: cubic-bezier(0, 0, 1, 1);animation-timing-function: cubic-bezier(0, 0, 1, 1);}</style>

<g id="el_DTvq5FnYqG">
	<linearGradient id="SVGID_1_" gradientUnits="userSpaceOnUse" x1="683" y1="0.5" x2="683" y2="767.5">
		<stop offset="0.4446" style="stop-color:#000000"/>
		<stop offset="1" style="stop-color:#151515"/>
	</linearGradient>
	<rect x="0.5" y="0.5" width="1365" height="767" id="el_UGUh2NCcjL"/>
	<path d="M1365,1v766H1V1h173.88H1365 M1366,0H174.88H0v768h1366V0L1366,0z" id="el_jxdlbw-lkG"/>
</g>
<g id="el_CDZCUJYuSO">
	<g id="el_qon4n3hJyW">
		<g id="el_gtPvJ4Asuu">
			
				<rect x="1409.85" y="710.41" width="31.76" height="36.68" id="el_uuZlPfoWfl"/>
			<polygon points="1435.95,717.33 1402.01,728.47 1428.62,752.29 &#9;&#9;&#9;" id="el_nXmcRSfDe4"/>
		</g>
		<g id="el_ObI31HmXCV">
			
				<rect x="1271.57" y="739.18" width="36.5" height="31.61" id="el_RR_FOvLRTc"/>
			<polygon points="1285.96,740.23 1276.57,774.51 1310.95,765.5 &#9;&#9;&#9;" id="el_NViie97yMr"/>
		</g>
		<g id="el_QwJneqIr6v">
			
				<rect x="1207.73" y="721.85" width="26.57" height="23.01" id="el_jm3qaqI7ko"/>
			<polygon points="1232.04,734.66 1211.31,719.18 1208.27,744.88 &#9;&#9;&#9;" id="el_nQ3Ljas5Qb"/>
		</g>
		<g id="el_-QF98nPLY9">
			
				<rect x="1362.64" y="636.47" width="46.88" height="54.13" id="el_VuxQ-fUbQ0P"/>
			<polygon points="1369.14,678.53 1420.8,668.02 1385.87,628.54 &#9;&#9;&#9;" id="el_ykz_It0mvFy"/>
		</g>
		<g id="el_jC3lT9oh2a2">
			
				<rect x="1163.48" y="636.78" width="59.65" height="51.66" id="el_U-ql7tgcZHd"/>
			<polygon points="1168.4,661.79 1217.72,692.47 1219.62,634.41 &#9;&#9;&#9;" id="el_4q6uaVoSrwf"/>
		</g>
		<g id="el_qeov8xQRNZ1">
			
				<rect x="1179.96" y="600.02" width="61.89" height="53.6" id="el_B8vlzZNLiNi"/>
			<polygon points="1226.33,647.58 1219.4,587.71 1171.02,623.64 &#9;&#9;&#9;" id="el_MP13-QoAEXV"/>
		</g>
		<g id="el_DU_qmWtMLmj">
			
				<rect x="1333.57" y="527.17" width="30.12" height="26.09" id="el_jw5iNe2FiVo"/>
			<polygon points="1336.68,536.27 1356.2,558.16 1365.4,530.31 &#9;&#9;&#9;" id="el_cHxmFHOVenY"/>
		</g>
		<g id="el_Ghw0TVttRfV">
			
				<rect x="1168.1" y="537.8" width="55.99" height="64.66" id="el_9zBdN9IiPQR"/>
			<polygon points="1209.19,546.5 1155.22,578.93 1210.29,609.45 &#9;&#9;&#9;" id="el_blBUzSj6UzX"/>
		</g>
		<g id="el_P720XAqXimR">
			
				<rect x="1324.3" y="434.74" width="34.68" height="40.05" id="el_ggCUz3mk531"/>
			<polygon points="1350.07,440.3 1316.21,459.67 1349.91,479.3 &#9;&#9;&#9;" id="el_Kiz4dzLSkUY"/>
		</g>
		<g id="el_4R9pcKQPIyM">
			
				<rect x="1336.02" y="389.9" width="38.06" height="43.94" id="el_EPMJTWQiYTW"/>
			<polygon points="1372.59,406.44 1330.86,396.96 1343.51,437.84 &#9;&#9;&#9;" id="el_HoZmXkxeTOo"/>
		</g>
		<g id="el_kW_mbXIDpGV">
			
				<rect x="1259.86" y="409.78" width="39.13" height="33.89" id="el_4ZAoLo5Zmi7"/>
			<polygon points="1263.25,424.29 1293.04,448.05 1298.73,410.37 &#9;&#9;&#9;" id="el_vSHgzIjLXku"/>
		</g>
		<g id="el_Ezo5lt-z3ts">
			
				<rect x="1188.21" y="406.01" width="43.05" height="37.28" id="el_ggmoIQF_M9R"/>
			<polygon points="1207.44,406.81 1191.28,445.49 1232.85,440.14 &#9;&#9;&#9;" id="el_8WumGqoXjVE"/>
		</g>
		<g id="el_xGDBGWmjrIr">
			
				<rect x="1283.07" y="310.51" width="22.13" height="25.56" id="el_FFmRfQrwvBD"/>
			<polygon points="1299.18,313.88 1278.03,327 1299.97,338.75 &#9;&#9;&#9;" id="el_kXCQeu0YBJp"/>
		</g>
		<g id="el_W3RghBdRHSx">
			
				<rect x="1190.3" y="289.55" width="49.59" height="42.95" id="el_4M8pgwr5km_"/>
			<polygon points="1205.37,292.73 1203.69,341 1246.33,318.32 &#9;&#9;&#9;" id="el_-luGHhJ0k0u"/>
		</g>
		<g id="el_nqvq4Lifc6S">
			
				<rect x="1169.62" y="228.62" width="45.49" height="52.53" id="el_5zyCwmg4GOR"/>
			<polygon points="1200.84,234.63 1160.14,265.62 1207.33,285.37 &#9;&#9;&#9;" id="el_wiizY_UtQ3M"/>
		</g>
		<g id="el_nfzrJTLOL7i">
			
				<rect x="1015.81" y="469.21" width="21.9" height="25.28" id="el_1S9h5q9uA8j"/>
			<polygon points="1037.18,480.17 1014.18,471.4 1018.09,495.71 &#9;&#9;&#9;" id="el_6W7pl122GzS"/>
		</g>
		<g id="el_z-IlDzvisbf">
			
				<rect x="1013.71" y="355.01" width="42.91" height="49.55" id="el_OSFEuIyMBc8"/>
			<polygon points="1043.69,360.92 1004.49,389.05 1048.46,408.93 &#9;&#9;&#9;" id="el_dZl7YznCMAI"/>
		</g>
		<g id="el_e21_NxooKjk">
			
				<rect x="1015.21" y="196.68" width="63.41" height="54.91" id="el_iGZTfEQLZoh"/>
			<polygon points="1072.12,232.29 1030.75,186.46 1011.75,245.21 &#9;&#9;&#9;" id="el_j2SrQ1q3idd"/>
		</g>
		<g id="el_Sl9yC0oLTBn">
			
				<rect x="987.67" y="299.47" width="38.53" height="33.37" id="el_m45rdeUsTV0"/>
			<polygon points="1022.7,319.43 994.71,294.44 987.07,331.18 &#9;&#9;&#9;" id="el_9rJqiPpqJmg"/>
		</g>
		<g id="el_NOZoaMyK80c">
			
				<rect x="956.69" y="332.57" width="48.91" height="56.47" id="el_s_h6sW-uZdB"/>
			<polygon points="998.58,344.9 944.86,356.66 981.9,397.31 &#9;&#9;&#9;" id="el_uzyY5ZABH-M"/>
		</g>
		<g id="el_Iac3P5a9_Fq">
			
				<rect x="940.41" y="185.39" width="34.76" height="30.1" id="el_8fCpKywC0To"/>
			<polygon points="970.32,207.79 953.6,178.36 936.47,207.55 &#9;&#9;&#9;" id="el_6-EYzXDebFt"/>
		</g>
		<g id="el_vhHltzmHU0-">
			
				<rect x="895.42" y="453.58" width="64.98" height="56.27" id="el_15YQExTNvU3"/>
			<polygon points="912.65,459.26 917.28,522.37 969.62,486.8 &#9;&#9;&#9;" id="el_FMNPMEPZAxw"/>
		</g>
		<g id="el_Bn__OdO2WDb">
			
				<rect x="878.91" y="418.59" width="46.92" height="40.64" id="el_i7MHR5j8zwm"/>
			<polygon points="910.28,456.86 915.23,411.43 873.42,429.86 &#9;&#9;&#9;" id="el_2MnVQPQPYUP"/>
		</g>
		<g id="el_h6GDmVbNw-m">
			
				<rect x="852.68" y="335.89" width="34.11" height="39.39" id="el_0hdgrP2MCWK"/>
			<polygon points="870.15,339.13 850.15,371.86 888.49,372.81 &#9;&#9;&#9;" id="el_3267sCGKu3t"/>
		</g>
		<g id="el_wAyC5oOWVZt">
			
				<rect x="782.52" y="200.33" width="56.06" height="64.74" id="el_HH52IKU9E9j"/>
			<polygon points="805.62,259.29 846.57,211.37 784.58,199.87 &#9;&#9;&#9;" id="el_kJVHIzXr-GD"/>
		</g>
		<g id="el_yvFaU9KvHkJ">
			
				<rect x="742.68" y="388.55" width="30.41" height="35.12" id="el_WUBeFyBIYuJ"/>
			<polygon points="766.16,393.99 735.34,408.81 763.58,428.09 &#9;&#9;&#9;" id="el_pnZJRqMPMDF"/>
		</g>
		<g id="el_j48WYqJRqOE">
			
				<rect x="709.12" y="353.5" width="24.94" height="28.8" id="el_-D4yS8diAJ0"/>
			<polygon points="730.33,359.63 703.06,366.15 722.34,386.51 &#9;&#9;&#9;" id="el_lg2DgbHO5Qz"/>
		</g>
		<g id="el_yk7jNPV9fBD">
			
				<rect x="602.4" y="400.26" width="49.7" height="57.39" id="el_gKQSekOF_AI"/>
			<polygon points="641.93,409.99 590.21,431.17 634.41,465.37 &#9;&#9;&#9;" id="el_lZcs7YMMPp-"/>
		</g>
		<g id="el_6dd9Dwx6nkr">
			
				<rect x="637.85" y="297.74" width="32.54" height="37.57" id="el_M02RFMQbE5X"/>
			<polygon points="648.06,331.01 677.16,308.83 643.41,294.72 &#9;&#9;&#9;" id="el_iIkjEvrWvMd"/>
		</g>
		<g id="el_cYnRhX1kL-y">
			
				<rect x="532.43" y="326.55" width="35.39" height="30.65" id="el_NoptAbW958v"/>
			<polygon points="551,356.63 566.42,325.81 532.02,327.87 &#9;&#9;&#9;" id="el_QUZPx883yfN"/>
		</g>
		<g id="el_fXyk6k-oNTh">
			
				<rect x="588.72" y="216.04" width="39.81" height="34.48" id="el_-VOLT3Hlmy4"/>
			<polygon points="622.73,242.1 604.55,207.86 583.99,240.73 &#9;&#9;&#9;" id="el_q3pknWBoEGF"/>
		</g>
		<g id="el_sUZhwIUWrbx">
			
				<rect x="518.88" y="227.54" width="24.86" height="28.7" id="el_PjG_vJWeUIu"/>
			<polygon points="542.3,237.1 514.53,233.95 525.69,259.58 &#9;&#9;&#9;" id="el_V2n6m6ld1QI"/>
		</g>
		<g id="el_bS5gKLmXG0L">
			
				<rect x="603.31" y="77.41" width="51.99" height="60.03" id="el_yT9_PRUz3dN"/>
			<polygon points="651.52,95.78 593.12,93.41 620.26,145.17 &#9;&#9;&#9;" id="el_HigqcSNqR5g"/>
		</g>
		<g id="el_2KHT1ctU8ro">
			
				<rect x="443.98" y="187.69" width="59.8" height="51.79" id="el_FhrAJJeB0-s"/>
			<polygon points="480.38,237.71 495.38,181.45 439.15,196.59 &#9;&#9;&#9;" id="el_XNbdGlef-Sz"/>
		</g>
		<g id="el_byBInVgBZl7">
			
				<rect x="471.83" y="117.71" width="48.14" height="55.59" id="el_ZC2s2XQGL0Q"/>
			<polygon points="514.01,130.95 460.52,139.21 494.42,181.41 &#9;&#9;&#9;" id="el_fANqGFpivgj"/>
		</g>
		<g id="el_pAh9CQUp56t">
			
				<rect x="464.58" y="268.3" width="38.03" height="43.91" id="el_j75GHNbeZ-W"/>
			<polygon points="465.91,295.17 507.32,305.84 495.86,264.65 &#9;&#9;&#9;" id="el_-8gSaGaYirg"/>
		</g>
		<g id="el_h71qxrXPE76">
			
				<rect x="350.29" y="-39.61" width="56.55" height="65.3" id="el_N3iyno07uCu"/>
			<polygon points="358.53,11.57 420.55,-2.48 377.37,-49.17 &#9;&#9;&#9;" id="el_kqV2IQJzHO3"/>
		</g>
		<g id="el_UnVbhBlnsn6">
			
				<rect x="367.28" y="137.4" width="42.91" height="37.16" id="el_eV5YiBU9DtH"/>
			<polygon points="375.55,143.83 388,183.72 416.32,152.99 &#9;&#9;&#9;" id="el_QHkL7kZcWuG"/>
		</g>
		<g id="el_oCIshLTDfmt">
			
				<rect x="290.13" y="37.92" width="34.13" height="39.42" id="el_a5zQ-USmasd"/>
			<polygon points="320.01,47.28 282.09,53.24 306.21,83.09 &#9;&#9;&#9;" id="el_eWbqxTUdwM1"/>
		</g>
		<g id="el_-OilQ5D1jaO">
			
				<rect x="334.52" y="227.71" width="26.74" height="30.88" id="el_GQGD_abHAe9"/>
			<polygon points="357.62,234.67 328.11,240.45 347.87,263.12 &#9;&#9;&#9;" id="el_Kbw4KV_jCvD"/>
		</g>
		<g id="el_Nj77BMqOvTB">
			
				<rect x="292.66" y="237.21" width="26.68" height="30.8" id="el_-7NGI4KEQFa"/>
			<polygon points="303.94,265.32 322.9,242.07 293.29,237.27 &#9;&#9;&#9;" id="el_QeRdb94mlDU"/>
		</g>
		<g id="el_T5q60elCT0k">
			
				<rect x="199.96" y="167.35" width="63.95" height="55.38" id="el_B_3x70oBQbu"/>
			<polygon points="208.79,181.69 239.94,235.61 271.06,181.67 &#9;&#9;&#9;" id="el_6nviqDvpPQC"/>
		</g>
		<g id="el_F-KG_YZllOI">
			
				<rect x="171.69" y="131.23" width="61.33" height="53.11" id="el_jBUGmDCAdFQ"/>
			<polygon points="214.73,180.23 215.9,120.52 163.6,149.35 &#9;&#9;&#9;" id="el__cOLxM-dpWE"/>
		</g>
		<g id="el_TILM3G89-vg">
			
				<rect x="142.81" y="297.21" width="63.6" height="55.08" id="el_ptLwgIVFDbV"/>
			<polygon points="148.06,323.39 200.05,357.06 203.22,295.2 &#9;&#9;&#9;" id="el_9Bl9QXBfVQw"/>
		</g>
		<g id="el_2Zo94VZ3M0c">
			
				<rect x="173.42" y="65.76" width="27.55" height="31.81" id="el_fkLHPDC5Fja"/>
			<polygon points="196.78,72.45 166.7,79.89 188.18,102.22 &#9;&#9;&#9;" id="el_qpO8LxLApYG"/>
		</g>
		<g id="el_656TGz0KXCj">
			
				<rect x="28.2" y="320.63" width="36.19" height="31.34" id="el_dG68d2xJmLK"/>
			<polygon points="41.23,322.06 34.85,356.72 68.06,344.91 &#9;&#9;&#9;" id="el_HmkHtEUQDR7"/>
		</g>
		<g id="el_DOvA36-Pyz3">
			
				<rect x="24.13" y="213.19" width="55.57" height="48.12" id="el_ECXgYpkXAXj"/>
			<polygon points="75.01,239.65 31.18,207.91 25.61,261.73 &#9;&#9;&#9;" id="el_Lc6BzVs2pQB"/>
		</g>
		<g id="el_9oavrJWqisD">
			
				<rect x="69.01" y="127.77" width="48.51" height="42.01" id="el_JtXkgl1BrzE"/>
			<polygon points="95.75,168.9 114.17,125.4 67.29,131.2 &#9;&#9;&#9;" id="el_hjCeKgZIa3C"/>
		</g>
		<g id="el_ZQLNHtVG4pW">
			
				<rect x="83.2" y="93.35" width="44.61" height="51.51" id="el_PeYA5Nrz9ic"/>
			<polygon points="94.54,137.62 138.25,113.02 95.09,87.47 &#9;&#9;&#9;" id="el_q4Hmvr_kTqp"/>
		</g>
		<g id="el_zML1bIj5PmB">
			
				<rect x="38.42" y="83.03" width="42.25" height="48.79" id="el_d4dGTFTPmJf"/>
			<polygon points="67.19,88.52 29.75,117.77 73.8,135.57 &#9;&#9;&#9;" id="el_lY6gokpoBRY"/>
		</g>
		<g id="el_Oy_XTipEP9C">
			
				<rect x="-116.23" y="74.83" width="31.97" height="36.91" id="el_XfDRBb3wPXS"/>
			<polygon points="-109.54,105.59 -76.44,91.57 -105.13,69.92 &#9;&#9;&#9;" id="el_v5xxpP2zteW"/>
		</g>
		<g id="el_4dioCc0Xcr9">
			
				<rect x="67.31" y="37.79" width="26.8" height="30.95" id="el_4inHkEw2BJT"/>
			<polygon points="87.9,42.51 60.87,55.83 85.92,72.58 &#9;&#9;&#9;" id="el_gjdb0n6gqne"/>
		</g>
	</g>
</g>
<g id="el__6J7Vr2c0Jy">
	<g id="el_TLoaRKKMrj8">
		<g id="el_-QJIvMGetyD">
			
				<rect x="762.19" y="38.22" width="47.86" height="41.44" id="el_A2sl-yHPdH3"/>
			<polygon points="806.08,60.03 767.06,34.56 764.51,81.1 &#9;&#9;&#9;" id="el_SsE3siaqTQD"/>
		</g>
	</g>
</g>
<g id="el_WL7VYCOb9PT">
	<g id="el_XsEKFo0qgU0">
		<g id="el_-oQ-EYnB-eS">
			
				<rect x="1057.25" y="566.17" width="47.89" height="41.48" id="el_ByW6fCqD4jJ"/>
			<polygon points="1061.37,584.17 1098.2,612.79 1104.56,566.59 &#9;&#9;&#9;" id="el_fHcp-H_kj_M"/>
		</g>
	</g>
</g>
<g id="el_6IKysT8-aod">
	<g id="el_rgLh7JyJ34M">
		<g id="el_6T4JtEl38YD">
			
				<rect x="871.66" y="500.07" width="35.63" height="30.86" id="el_d-ESC1N2iMe"/>
			<polygon points="887.97,500.68 873.75,532.33 908.27,528.82 &#9;&#9;&#9;" id="el_ghHp0tHOf8X"/>
		</g>
	</g>
</g>
<g id="el_GusbAASjp24">
	<g id="el_dwbILAHHihz">
		<g id="el_Szjv3NfrH9k">
			
				<rect x="867.51" y="595.31" width="50.61" height="58.44" id="el_s5ColZ5ZHtQ"/>
			<polygon points="887.06,648.26 926.32,607.08 871.02,593.66 &#9;&#9;&#9;" id="el_572RgWIvagA"/>
		</g>
	</g>
</g>
<g id="el_GJjXfHJr6Mu">
	<g id="el_BNXalKnw4Gh">
		<g id="el_13wfkSWc9ZC">
			
				<rect x="97.31" y="399.01" width="43.92" height="50.72" id="el_URsVATWaAJw"/>
			<polygon points="104.88,439.93 152.05,425.28 115.78,391.76 &#9;&#9;&#9;" id="el_1X_9sN3QY4w"/>
		</g>
	</g>
</g>
<g id="el_qbh0uCHnPxD">
	<g id="el_rmeD4Fw0OrR">
		<g id="el_jeuqmiLAMP1">
			
				<rect x="63.79" y="489.94" width="24.27" height="28.02" id="el_SyY84cPsUaR"/>
			<polygon points="82.1,494.01 58.04,506.88 81.22,521.28 &#9;&#9;&#9;" id="el_FsM7JYK2CUi"/>
		</g>
	</g>
</g>
<g id="el_JoZ-v2h-fv6">
	<g id="el_9yqPWloRBLV">
		<g id="el_8SVxOC0SHsp">
			
				<rect x="76.38" y="586.17" width="49.09" height="42.51" id="el_hu18keeIC60"/>
			<polygon points="115.1,622.25 103.78,575.81 69.22,608.84 &#9;&#9;&#9;" id="el_Bqmf7z_JMaz"/>
		</g>
	</g>
</g>
<g id="el_QzFdfyAlR6T">
	<g id="el_cEJPOz5vxI9">
		<g id="el_JBshKsw8QpF">
			
				<rect x="934.98" y="239.52" width="32.49" height="37.52" id="el_yKW43abxvIE"/>
			<g id="el_EkP9KL_Gqff">
				<path d="M954.23,243.27l-23.7,26.95l35.19,7.06L954.23,243.27 M954.42,242.35l12,35.54l-36.78-7.38L954.42,242.35&#10;&#9;&#9;&#9;&#9;&#9;L954.42,242.35z" id="el_cgL_NL1BKv1"/>
			</g>
		</g>
		<g id="el_CoiEz3D3gWW">
			
				<rect x="1055.58" y="361.56" width="58.33" height="50.51" id="el_sxhIdHp4Aex"/>
			<g id="el_W6A4lOKqb0O">
				<path d="M1061.45,381.96l41.62,37.16l11.37-54.63L1061.45,381.96 M1060.01,381.67l55.4-18.26l-11.89,57.1&#10;&#9;&#9;&#9;&#9;&#9;L1060.01,381.67L1060.01,381.67z" id="el_AFo9woB9Q_H"/>
			</g>
		</g>
		<g id="el_W9BcqJ99der">
			
				<rect x="975.17" y="532.96" width="53.74" height="46.54" id="el_uVi7M8xdbNA"/>
			<g id="el_nNixKdSB5jI">
				<path d="M983.4,544.68l24.31,45.3l27.07-43.7L983.4,544.68 M982.26,543.97l53.72,1.66l-28.3,45.69L982.26,543.97&#10;&#9;&#9;&#9;&#9;&#9;L982.26,543.97z" id="el_zYs6hu75wbs"/>
			</g>
		</g>
	</g>
</g>
<g id="el_nNh3VwdKtlC">
	<g id="el_-dD3F38R76a">
		<g id="el_GQtCx2iW8rQ">
			
				<rect x="871.77" y="135.85" width="34.55" height="29.92" id="el_i2aV3BSVsQP"/>
			<g id="el_TwSHINT0AfS">
				<path d="M878.3,141.68l11.11,31.13l21.4-25.19L878.3,141.68 M877.64,141.12l33.99,6.21l-22.37,26.33L877.64,141.12&#10;&#9;&#9;&#9;&#9;&#9;L877.64,141.12z" id="el_ehZLeTjPaLZ"/>
			</g>
		</g>
		<g id="el_6_sAZlUU050">
			
				<rect x="835.88" y="211.93" width="32.16" height="37.13" id="el_lX5-NcycS_h"/>
			<g id="el_TNiY1Akok-U">
				<path d="M852.44,215.36l-18.72,30.19l35.5,1.12L852.44,215.36 M852.47,214.43l17.54,32.72l-37.11-1.17&#10;&#9;&#9;&#9;&#9;&#9;L852.47,214.43L852.47,214.43z" id="el_-mHM9E3ISos"/>
			</g>
		</g>
		<g id="el__AtpjZStNvA">
			
				<rect x="705.53" y="254.59" width="68.29" height="59.14" id="el_nJmQL4vK9Tl"/>
			<g id="el_fmvBOwvXI2m">
				<path d="M716.93,268.08l27.34,59.34l37.72-53.34L716.93,268.08 M715.53,267.09l68.01,6.26l-39.43,55.76&#10;&#9;&#9;&#9;&#9;&#9;L715.53,267.09L715.53,267.09z" id="el_wK-NvSRNljR"/>
			</g>
		</g>
		<g id="el_d0wJjMG0_5e">
			
				<rect x="631.82" y="114.57" width="67.5" height="58.45" id="el__cnBRvzpsk5"/>
			<g id="el_mgvVbV09hS3">
				<path d="M651.49,120.13l0.84,64.56l55.49-33.01L651.49,120.13 M650.63,118.68l58.89,32.98l-58.01,34.51&#10;&#9;&#9;&#9;&#9;&#9;L650.63,118.68L650.63,118.68z" id="el_Pyt4I-7XF4V"/>
			</g>
		</g>
		<g id="el_kuWmU1817vQ">
			
				<rect x="612.8" y="241.19" width="37.53" height="32.5" id="el_8x1qPoHzoc3"/>
			<g id="el_Rg8qO5mDJ-l">
				<path d="M626.18,243.11l-5.86,35.42l33.61-12.64L626.18,243.11 M625.85,242.23l29,23.82l-35.13,13.21&#10;&#9;&#9;&#9;&#9;&#9;L625.85,242.23L625.85,242.23z" id="el_zoa4FdQMMor"/>
			</g>
		</g>
		<g id="el_AgmkZKC32QY">
			
				<rect x="510.62" y="256.53" width="52.99" height="45.89" id="el_18mllG8ygC2"/>
			<g id="el_MCi0_0H8b6e">
				<path d="M530.07,259.04l-9.66,49.76l47.92-16.52L530.07,259.04 M529.64,257.79l40,34.75l-50.1,17.27L529.64,257.79&#10;&#9;&#9;&#9;&#9;&#9;L529.64,257.79z" id="el_4YWrVEa1fOY"/>
			</g>
		</g>
	</g>
</g>
<g id="el_VxrJXkx-TSl">
	<g id="el_9F5Tu9fffU_">
		<g id="el_eEObQtoXAHa">
			
				<rect x="1260.92" y="645.36" width="62.71" height="54.31" id="el_rzE_eMasfYQ"/>
			<g id="el_e4LTyanVt4g">
				<path d="M1280.41,649.85l-2.49,59.94l53.15-27.81L1280.41,649.85 M1279.68,648.46l52.96,33.59l-55.56,29.07&#10;&#9;&#9;&#9;&#9;&#9;L1279.68,648.46L1279.68,648.46z" id="el_jz9tZXiraJW"/>
			</g>
		</g>
		<g id="el_UjBvYDA-QNc">
			
				<rect x="1261.59" y="555.32" width="63.41" height="54.91" id="el_zHbxyggcf3v"/>
			<g id="el_zclIiiOmouF">
				<path d="M1270.22,571.08l33.14,50.8l27.43-54.1L1270.22,571.08 M1268.8,570.36l63.31-3.45l-28.67,56.55&#10;&#9;&#9;&#9;&#9;&#9;L1268.8,570.36L1268.8,570.36z" id="el_g40izC6Scer"/>
			</g>
		</g>
		<g id="el_5rIaAyuekY-">
			
				<rect x="1266.31" y="510.19" width="45.56" height="39.45" id="el_9r0zt2kT31Z"/>
			<g id="el_1zHXFsrMsi1">
				<path d="M1273.4,519.96l20.19,38.62l23.35-36.8L1273.4,519.96 M1272.44,519.35l45.52,1.9l-24.41,38.47&#10;&#9;&#9;&#9;&#9;&#9;L1272.44,519.35L1272.44,519.35z" id="el_15rsJCGmuXE"/>
			</g>
		</g>
		<g id="el_Ebxi1RaA4Ck">
			
				<rect x="1100.64" y="443.64" width="54.71" height="63.18" id="el_dxS_MxAd648"/>
			<g id="el_F9EJ6f1etrX">
				<path d="M1132.08,449.78l-38.14,46.88l59.67,9.59L1132.08,449.78 M1132.33,448.22l22.51,59.03l-62.38-10.02&#10;&#9;&#9;&#9;&#9;&#9;L1132.33,448.22L1132.33,448.22z" id="el_8oP7EDGdzTH"/>
			</g>
		</g>
	</g>
</g>
<g id="el_36C6KivRRgj">
	<g id="el_JFmQVfwNdTMF">
		<g id="el_9k_qtX75pKTe">
			
				<rect x="1016.76" y="635.82" width="67.01" height="58.03" id="el_y0LiHLNFHjkh"/>
			<g id="el_Owz9TKa9U8ev">
				<path d="M1036.69,641.1l-0.28,64.1l55.65-31.81L1036.69,641.1 M1035.86,639.64l57.88,33.76l-58.17,33.25&#10;&#9;&#9;&#9;&#9;&#9;L1035.86,639.64L1035.86,639.64z" id="el_miUOaErbTWVb"/>
			</g>
		</g>
		<g id="el_U1VzevXh9q06">
			
				<rect x="936.07" y="599.09" width="64.41" height="55.78" id="el_QdMb_IlLsFS6"/>
			<g id="el_9VhPAXrL2QbW">
				<path d="M957.29,603.11l-5.68,61.35l55.97-25.76L957.29,603.11 M956.62,601.65l52.57,37.21l-58.51,26.93&#10;&#9;&#9;&#9;&#9;&#9;L956.62,601.65L956.62,601.65z" id="el_DEJu5mNLTidW"/>
			</g>
		</g>
		<g id="el_hc8HHJ6mggoa">
			
				<rect x="917.07" y="464.15" width="50.3" height="58.09" id="el_aTjXMXqD8bOG"/>
			<g id="el_ehuBAbQ7G-7R">
				<path d="M951.94,471.58l-45.08,32.49l50.68,22.79L951.94,471.58 M952.54,470.26l5.86,57.79l-52.98-23.82&#10;&#9;&#9;&#9;&#9;&#9;L952.54,470.26L952.54,470.26z" id="el_PLgHLdgrWL3K"/>
			</g>
		</g>
	</g>
</g>
<g id="el_kTErzGe3fLgs">
	<g id="el_o4NB59spxTZy">
		<g id="el_p1_-0JhozGzA">
			
				<rect x="1248.79" y="208.17" width="54.92" height="47.57" id="el_8e-EZkwL6lP5"/>
			<g id="el_MmMEJNpDn6HZ">
				<path d="M1264.92,212.62l0.35,52.54l45.33-26.57L1264.92,212.62 M1264.22,211.44l47.75,27.15l-47.38,27.78&#10;&#9;&#9;&#9;&#9;&#9;L1264.22,211.44L1264.22,211.44z" id="el_u2JaN7gkVoPR"/>
			</g>
		</g>
	</g>
</g>
</svg>