<?xml version="1.0" encoding="UTF-8"?>
<svg width="3149px" height="921px" viewBox="0 0 3149 921" version="1.1" xmlns="http://www.w3.org/2000/svg" xmlns:xlink="http://www.w3.org/1999/xlink">
    <!-- Generator: Sketch 49.2 (51160) - http://www.bohemiancoding.com/sketch -->
    <title>gfm-logo</title>
    <desc>Created with Sketch.</desc>
    <defs></defs>
    <g id="Page-1" stroke="none" stroke-width="1" fill="none" fill-rule="evenodd">
        <g id="gfm-logo" transform="translate(-1.000000, 0.000000)" fill="#00B964" fill-rule="nonzero">
            <path d="M3090.71,417 C3094.71,407.89 3098.2,399.53 3101.99,391.3 C3103.62,387.75 3109.4,386.01 3112.88,387.47 C3114.88,388.29 3114.27,389.93 3114.27,391.3 C3114.27,407.3 3114.27,423.3 3114.36,439.25 C3114.36,442.25 3113.42,443.25 3110.36,443.25 C3107.3,443.25 3106.36,442.2 3106.36,439.2 C3106.48,427.88 3106.43,416.55 3106.36,405.2 C3106.36,403.45 3106.75,401.62 3105.62,399.35 C3102.07,407.94 3097.51,415.59 3094.79,424.06 C3094.14,426.06 3093.55,427.71 3091,427.92 C3088.45,428.13 3087.2,427 3086.23,424.67 C3083.44,417.96 3080.41,411.34 3077.39,404.72 C3076.81,403.44 3076.55,401.83 3074.62,401.09 C3073.56,403.09 3074.06,405.27 3074.05,407.31 C3073.99,417.79 3073.94,428.31 3074.05,438.77 C3074.05,441.85 3073.39,443.25 3069.93,443.24 C3066.47,443.23 3066.34,441.34 3066.34,438.78 C3066.39,423.46 3066.34,408.14 3066.42,392.83 C3066.42,390.83 3065.1,387.42 3068.82,387.42 C3072.1,387.42 3076.22,385.33 3078.35,390.25 C3081.82,398.25 3085.56,406.18 3089.2,414.12 C3089.59,414.9 3090,415.61 3090.71,417 Z" id="Shape"></path>
            <path d="M3033.23,419 C3033.23,412.85 3032.91,406.68 3033.34,400.56 C3033.69,395.56 3031.78,394.06 3027.11,394.61 C3024.49,394.92 3021.79,394.54 3019.11,394.7 C3016.3,394.86 3014.9,394.21 3014.88,390.92 C3014.88,387.43 3016.64,387.27 3019.25,387.29 C3031.39,387.36 3043.53,387.38 3055.67,387.29 C3058.58,387.29 3059.89,388.09 3059.85,391.29 C3059.81,394.49 3058.21,394.83 3055.71,394.76 C3052.55,394.66 3049.37,394.96 3046.24,394.68 C3042.37,394.32 3041.06,395.61 3041.14,399.63 C3041.38,412.43 3041.14,425.24 3041.26,438.04 C3041.26,441.14 3041.32,443.39 3036.97,443.31 C3032.62,443.23 3033.2,440.68 3033.2,438.03 C3033.23333,431.67 3033.24333,425.326667 3033.23,419 Z" id="Shape"></path>
            <path d="M2322,540.12 C2330.54,532.68 2338.29,525.92 2347.06,520.5 C2372.24,504.93 2399.73,500.13 2428.9,502.66 C2442.51336,503.722589 2455.85361,507.051735 2468.37,512.51 C2486.37,520.51 2499.75,533.51 2510.68,549.51 C2512.5,552.16 2513.43,552.68 2515.47,549.63 C2534.14,521.72 2560.85,506.43 2593.66,502.41 C2626.16,498.41 2656.4,504.78 2681.47,527.41 C2694.11,538.84 2701.18,553.56 2704.17,570.3 C2706.07531,581.447755 2707.00218,592.740766 2706.94,604.05 C2707.07,661.37 2706.94,718.7 2707.12,776.05 C2707.12,780.94 2705.76,782.05 2701.01,782.05 C2670.85,781.83 2640.68667,781.83 2610.52,782.05 C2606.14,782.05 2604.94,780.99 2604.96,776.54 C2605.13333,731.38 2605.15333,686.22 2605.02,641.06 C2605.12878,630.24154 2603.98789,619.446704 2601.62,608.89 C2592.9,571.89 2550.91,571.66 2532.19,589.17 C2520.68,599.94 2516.86,613.68 2515.19,628.52 C2513.75,641.14 2514.31,653.8 2514.29,666.45 C2514.23,703.283333 2514.24667,740.11 2514.34,776.93 C2514.34,780.74 2513.5,782.07 2509.41,782.04 C2478.74333,781.873333 2448.07667,781.873333 2417.41,782.04 C2413.12,782.04 2412.22,780.71 2412.23,776.67 C2412.37,731.01 2412.31,685.35 2412.32,639.67 C2412.32,630.34 2412,621.04 2410.2,611.85 C2406.86,594.74 2396.63,584.06 2379.83,579.85 C2360.02,574.92 2340.45,582.38 2330.05,598.66 C2323.8,608.43 2322.45,619.66 2322.37,630.78 C2322.01667,679.113333 2321.94667,727.446667 2322.16,775.78 C2322.16,780.96 2320.76,782.07 2315.8,782.03 C2285.64,781.79 2255.47667,781.79 2225.31,782.03 C2221.09,782.03 2220.08,780.84 2220.09,776.73 C2220.19667,688.236667 2220.19667,599.746667 2220.09,511.26 C2220.09,506.92 2221.48,506.1 2225.47,506.12 C2255.97,506.28 2286.46667,506.28 2316.96,506.12 C2321.27,506.12 2322.25,507.47 2322.13,511.5 C2321.83,520.62 2322,529.79 2322,540.12 Z" id="Shape"></path>
            <path d="M2015.39,754 C2009.12,760.09 2003.07,766 1996.24,770.93 C1980.69,782.22 1963.09,787.93 1944.1,790.09 C1914.7,793.42 1886.68,788.72 1860.77,774.59 C1819.59,752.14 1792.85,718.39 1785.49,671.4 C1779.49,632.89 1783.91,595.62 1806.13,562.49 C1830,527 1863.21,505.28 1906,499 C1937.48,494.36 1967.12,499.38 1994.54,515.89 C2001.83,520.27 2008,526.15 2014.69,531.89 C2015.93,529.89 2015.4,527.89 2015.4,526.06 C2015.4,464.58 2015.37,403.096667 2015.31,341.61 C2015.31,336.54 2016.65,335.15 2021.73,335.19 C2052.22,335.43 2082.73,335.37 2113.2,335.19 C2117.04,335.19 2118.3,336.09 2118.3,340.19 C2118.19333,485.823333 2118.19333,631.453333 2118.3,777.08 C2118.3,780.83 2117.57,782.21 2113.43,782.19 C2082.44333,782.003333 2051.44333,782.003333 2020.43,782.19 C2016.43,782.19 2015.23,780.93 2015.35,777.05 C2015.56,769.36 2015.39,761.7 2015.39,754 Z M1954.13,706 C1957.79,706 1961.5,706.38 1965.13,705.94 C2002.33,701.4 2027.44,662.94 2016.43,626.81 C2003.56,584.64 1953.61,569.61 1919.03,591.92 C1893.85,608.17 1886.82,631.26 1890.64,654.83 C1895.33,683.87 1922.57,708 1954.13,706 Z" id="Shape"></path>
            <path d="M561.47,495.93 C598.12,495.87 628.65,500.8 656.69,515.93 C695.69,537.05 723.22,567.93 733.06,612.08 C748.06,679.45 715.57,744.47 652.93,774.14 C630.69,784.67 607.12,789.6 582.65,791.29 C556.55,793.09 530.75,791.65 505.46,784.95 C459.15,772.69 423.62,746.3 403.98,701.95 C382.17,652.73 387.67,592.6 428.37,548.95 C453.83,521.65 485.13,506.23 521.43,499.79 C536.38,497.21 551.4,495.82 561.47,495.93 Z M564.24,579.93 C559.246487,579.828079 554.255225,580.22336 549.34,581.11 C511.93,588.43 483.47,631.44 503.96,671.87 C517.78,699.14 546.51,712.7 578.29,707 C614.22,700.54 637.38,664.88 629.45,629.34 C623.83,604.15 597.08,578.67 564.24,579.91 L564.24,579.93 Z" id="Shape"></path>
            <path d="M1525.25,540.31 C1532.25378,531.945069 1540.26833,524.481396 1549.11,518.09 C1563.84,507.61 1580.57,502.71 1598.39,500.91 C1621.15,498.62 1643.59,499.48 1665.13,507.91 C1697.87,520.78 1717.03,544.83 1723.27,579.39 C1724.97,588.78 1725.27,598.2 1725.27,607.69 C1725.23,664.01 1725.26,720.326667 1725.36,776.64 C1725.36,781.09 1724.19,782.15 1719.82,782.12 C1689.5,781.92 1659.16667,781.92 1628.82,782.12 C1623.76,782.12 1622.93,780.56 1622.94,775.95 C1623.11333,729.63 1623.11333,683.313333 1622.94,637 C1622.96451,627.361779 1621.98929,617.747006 1620.03,608.31 C1616.52,592.1 1606.27,582.05 1590.57,578.57 C1569.86,573.97 1551.24,578.49 1536.69,594.97 C1529.69,602.9 1527.34,612.72 1526.08,622.97 C1524.62,634.75 1525.27,646.58 1525.25,658.38 C1525.16333,697.873333 1525.18333,737.363333 1525.31,776.85 C1525.31,780.97 1524.31,782.15 1520.08,782.13 C1489.41333,781.943333 1458.74667,781.943333 1428.08,782.13 C1423.8,782.13 1422.91,780.84 1422.92,776.79 C1423.02667,688.316667 1423.02667,599.843333 1422.92,511.37 C1422.92,506.88 1424.15,505.89 1428.48,505.92 C1458.96667,506.113333 1489.45667,506.113333 1519.95,505.92 C1523.95,505.92 1525.46,506.75 1525.31,511.07 C1525,520.4 1525.25,529.71 1525.25,540.31 Z" id="Shape"></path>
            <path d="M1357.18,601.64 C1357.18,630.64 1357.8,659.64 1357.02,688.64 C1356.02,726.11 1339.36,754.79 1306.12,773.12 C1286.03,784.19 1264.26,789.49 1241.63,792.21 C1224.09929,794.219251 1206.43262,794.777814 1188.81,793.88 C1156.51,792.44 1125.01,787.12 1097.01,769.41 C1070.29667,752.523333 1055.29667,728.293333 1052.01,696.72 C1051.35105,689.262449 1051.08069,681.775656 1051.2,674.29 C1051.2,620.13 1051.2,565.96 1051.08,511.8 C1051.08,507.39 1051.99,505.9 1056.74,505.94 C1087.24,506.173333 1117.74,506.173333 1148.24,505.94 C1152.75,505.94 1154.12,506.94 1154.1,511.68 C1153.92,562.51 1154.02,613.34 1153.96,664.17 C1153.96,672.41 1154.84,680.42 1158.15,688.03 C1164.04,701.58 1175.1,708.8 1188.92,711.71 C1201.4,714.33 1214.08,714.17 1226.32,709.87 C1243.08,703.97 1251.88,691.72 1254.18,674.34 C1255.18,666.72 1255.13,659.08 1255.13,651.43 C1255.13,604.76 1255.19,558.1 1255.02,511.43 C1255.02,507.01 1256.13,505.9 1260.53,505.93 C1291.03,506.13 1321.53,506.13 1352.03,505.93 C1356.11,505.93 1357.37,506.87 1357.34,511.12 C1357.15,541.28 1357.24,571.45 1357.24,601.62 L1357.18,601.64 Z" id="Shape"></path>
            <path d="M2975.56,662.27 L2875.08,662.27 C2869.29,662.27 2868.81,662.86 2869.57,668.63 C2870.32,674.22 2870.68,679.86 2872.16,685.36 C2876.85,702.74 2887.27,714.77 2904.69,720.14 C2919.79,724.8 2935.03,725.73 2950.38,721.14 C2961.5,717.84 2970.25,711.14 2977.09,701.99 C2979.09,699.35 2981.04,698.07 2984.48,698.08 C3013.81333,698.22 3043.14667,698.22 3072.48,698.08 C3077.31,698.08 3077.57,699.52 3076.21,703.55 C3060.74,749.31 3028.01,775.55 2982.14,787.03 C2967.23,790.74 2952.05,792.09 2936.67,792.35 C2910.03,792.81 2883.79,790.45 2858.76,780.95 C2809.66,762.31 2778.56,727.68 2769.21,675.53 C2762.08,635.77 2767.27,597.53 2789.28,562.81 C2806.12,536.23 2829.81,517.81 2859.68,508.21 C2900.1,495.21 2941.26,494.21 2982.05,505.81 C3032.53,520.11 3062.42,555 3076.14,604.71 C3081.02,622.36 3081.71,640.46 3081.47,658.66 C3081.47,662.66 3079.11,662.26 3076.56,662.26 L2975.56,662.27 Z M2929.22,607.05 C2946.86667,607.05 2964.53333,607.05 2982.22,607.05 C2984.3,607.05 2987.02,607.64 2986.02,603.93 C2982.31,590.11 2976.17,577.82 2964.08,569.27 C2951.99,560.72 2938.3,559.39 2924.08,559.95 C2898.08,560.95 2878.45,577.53 2872.89,602.95 C2872.09,606.62 2873.07,607.11 2876.31,607.09 C2893.91,607 2911.57,607.05 2929.22,607.05 Z" id="Shape"></path>
            <path d="M836.21,684.17 C836.21,653.52 836.13,622.86 836.3,592.17 C836.3,588.06 835.3,586.72 831.09,586.88 C822.09,587.2 813.09,586.88 804.09,587.03 C801.04,587.09 800.09,586.11 800.09,583.03 C800.19,558.71 800.19,534.376667 800.09,510.03 C800.09,506.6 801.3,505.85 804.43,505.91 C813.26,506.09 822.11,505.68 830.92,506.1 C835.55,506.31 836.41,504.7 836.32,500.47 C836.04,488.31 835.91,476.14 836.32,463.99 C837.11,438.63 841.38,413.91 855.69,392.41 C874.74,363.8 901.51,345.64 935.1,338.04 C958.64,332.71 981.83,333.78 1004.5,342.82 C1008.77,344.52 1010.13,346.64 1010.08,351.21 C1009.83,375.36 1009.97,399.53 1009.97,423.69 C1009.97,430.64 1009.97,430.69 1003.97,427.69 C993.27,422.29 982.14,419.05 969.97,419.74 C953.16,420.69 941.74,432.01 940.18,448.74 C938.54,466.36 939.36,484 938.94,501.62 C938.85,505.2 940.07,506.09 943.49,506.07 C963.99,505.92 984.49,506.07 1004.97,505.91 C1008.8,505.91 1010.13,506.79 1010.1,510.91 C1009.91333,534.396667 1009.91333,557.89 1010.1,581.39 C1010.1,585.66 1009.1,587.17 1004.55,587.11 C984.89,586.87 965.23,586.98 945.55,587.02 C938.21,587.02 939.02,586.23 939.02,593.83 C939.02,654.323333 939.02,714.806667 939.02,775.28 C939.02,782.06 939.02,782.06 932.25,782.06 C901.93,782.06 871.6,781.99 841.25,782.15 C837.34,782.15 836.18,781.15 836.25,777.15 C836.28,746.16 836.21,715.17 836.21,684.17 Z" id="Shape"></path>
            <path d="M3137.1,80.42 C3117.57,56.93 3071.54,51.14 3043.05,64.53 C3037.05,67.35 3030.79,69.63 3025.4,73.53 L2854.48,197.53 C2842.31,208.15 2831.29,220.22 2829.56,235.9 C2827.98,250.2 2829.56,262.03 2842.07,274.8 C2870.37,303.62 2920.33,303.8 2944.15,289.28 C2966.03,275.99 3110.57,169.17 3134.15,151.76 L3140.27,145.63 C3147.26,136 3159.37,107.21 3137.1,80.42 Z" id="Shape"></path>
            <path d="M2418.1,270.41 C2430.63,257.64 2432.19,245.81 2430.61,231.51 C2428.88,215.83 2417.86,203.76 2405.69,193.14 L2234.77,69.14 C2229.38,65.23 2223.13,62.95 2217.12,60.14 C2188.63,46.75 2142.6,52.54 2123.12,76.03 C2100.85,102.82 2112.96,131.6 2120,141.21 L2126.12,147.34 C2149.6,164.78 2294.14,271.6 2316.04,284.89 C2339.84,299.38 2389.8,299.23 2418.1,270.41 Z" id="Shape"></path>
            <path d="M2631.32,238 C2667.81,238 2698.39,221.39 2707.08,190.55 C2708.20915,186.309167 2708.77733,181.938576 2708.77,177.55 L2709.59,66.37 C2709.59,65.43 2709.66,64.49 2709.66,63.56 C2709.66,20.82 2675.21,0.96 2631.95,0.96 C2588.95,0.96 2554,24.03 2553.65,66.37 L2553.57,178.45 C2553.49983,182.818474 2553.93268,187.180509 2554.86,191.45 C2562.29,223.52 2593.68,238 2631.32,238 Z" id="Shape"></path>
            <path d="M2856.9,321.61 C2798.9,292.75 2722.24,274.61 2622.14,274.61 C2454.42,274.61 2341.95,327.54 2284.81,404.47 L2285.67,404.47 L2285.43,404.78 L2960.43,404.72 C2935.82,372.84 2902,344 2856.9,321.61 Z" id="Shape"></path>
            <path d="M231.85,750.65 C226.85,754.78 222.78,758.3 218.56,761.65 C200.26,776.36 179.35,784.24 155.95,786.31 C122.6,789.31 91.25,783.49 62.72,765.56 C28.31,744 9.06,712.28 3.14,672.42 C-1.86,639.04 1.43,606.42 17.29,576.3 C40.01,533.2 75.6,507.11 124.29,499.93 C149.81,496.16 174.69,498.34 198.46,509.1 C209.09,513.91 218.02,521.1 226.13,529.32 C227.7,530.92 229.04,532.75 230.49,534.48 L232,533.54 C232,526.12 232.17,518.69 231.92,511.28 C231.8,507.53 232.68,506.07 236.83,506.09 C267.496667,506.27 298.163333,506.27 328.83,506.09 C332.26,506.09 333.39,506.98 333.39,510.54 C333.27,600.86 333.53,691.18 333.03,781.54 C332.91,802.46 330.47,823.41 320.59,842.59 C305.97,871 283.14,890.69 254.59,904.06 C232.32,914.5 208.59,918.88 184.12,920.41 C153.74,922.31 123.86,920.03 95.12,909.95 C58.64,897.19 30,874.78 11.71,840.18 C8.35,833.82 6.51,826.92 5.12,819.86 C4.4,816.22 4.98,815.06 9.05,815.09 C34.54,815.29 60.05,815.19 85.53,815.19 C95.1966667,815.19 104.863333,815.19 114.53,815.19 C116.6,815.19 118.32,815.19 119.26,817.73 C125.39,834.15 138.5,841.55 154.81,843.61 C170.88,845.61 186.75,844.34 201.37,836.24 C219.97,825.94 229.18,809.68 231.1,788.9 C232.25,776.51 232,764.1 231.85,750.65 Z M171.41,707 C206.19,707.9 236.83,679.48 236.85,643.16 C236.85,607.95 209.34,578.4 171.67,578.39 C131.76,578.39 106.92,611.53 106.74,642.86 C106.54,676.07 135.29,707.57 171.41,707 Z" id="Shape"></path>
        </g>
    </g>
</svg>