<svg version="1.1" id="el_vL1UjEK36" xmlns="http://www.w3.org/2000/svg" xmlns:xlink="http://www.w3.org/1999/xlink" x="0px" y="0px" viewBox="0 0 1366 508" style="enable-background:new 0 0 1366 508;" xml:space="preserve"><style>@-webkit-keyframes kf_el_xyzIDNH1MBX_an_g6O5WcVUA{0%{-webkit-transform: translate(816.2905883789062px, 187.52377319335938px) rotate(0deg) translate(-816.2905883789062px, -187.52377319335938px);transform: translate(816.2905883789062px, 187.52377319335938px) rotate(0deg) translate(-816.2905883789062px, -187.52377319335938px);}50%{-webkit-transform: translate(816.2905883789062px, 187.52377319335938px) rotate(45deg) translate(-816.2905883789062px, -187.52377319335938px);transform: translate(816.2905883789062px, 187.52377319335938px) rotate(45deg) translate(-816.2905883789062px, -187.52377319335938px);}100%{-webkit-transform: translate(816.2905883789062px, 187.52377319335938px) rotate(0deg) translate(-816.2905883789062px, -187.52377319335938px);transform: translate(816.2905883789062px, 187.52377319335938px) rotate(0deg) translate(-816.2905883789062px, -187.52377319335938px);}}@keyframes kf_el_xyzIDNH1MBX_an_g6O5WcVUA{0%{-webkit-transform: translate(816.2905883789062px, 187.52377319335938px) rotate(0deg) translate(-816.2905883789062px, -187.52377319335938px);transform: translate(816.2905883789062px, 187.52377319335938px) rotate(0deg) translate(-816.2905883789062px, -187.52377319335938px);}50%{-webkit-transform: translate(816.2905883789062px, 187.52377319335938px) rotate(45deg) translate(-816.2905883789062px, -187.52377319335938px);transform: translate(816.2905883789062px, 187.52377319335938px) rotate(45deg) translate(-816.2905883789062px, -187.52377319335938px);}100%{-webkit-transform: translate(816.2905883789062px, 187.52377319335938px) rotate(0deg) translate(-816.2905883789062px, -187.52377319335938px);transform: translate(816.2905883789062px, 187.52377319335938px) rotate(0deg) translate(-816.2905883789062px, -187.52377319335938px);}}@-webkit-keyframes kf_el_9uXnnkJGqk_an_6nOrZE0PJ{0%{-webkit-transform: translate(152.1699981689453px, 36.60000991821289px) rotate(0deg) translate(-152.1699981689453px, -36.60000991821289px);transform: translate(152.1699981689453px, 36.60000991821289px) rotate(0deg) translate(-152.1699981689453px, -36.60000991821289px);}51.11%{-webkit-transform: translate(152.1699981689453px, 36.60000991821289px) rotate(-35deg) translate(-152.1699981689453px, -36.60000991821289px);transform: translate(152.1699981689453px, 36.60000991821289px) rotate(-35deg) translate(-152.1699981689453px, -36.60000991821289px);}100%{-webkit-transform: translate(152.1699981689453px, 36.60000991821289px) rotate(0deg) translate(-152.1699981689453px, -36.60000991821289px);transform: translate(152.1699981689453px, 36.60000991821289px) rotate(0deg) translate(-152.1699981689453px, -36.60000991821289px);}}@keyframes kf_el_9uXnnkJGqk_an_6nOrZE0PJ{0%{-webkit-transform: translate(152.1699981689453px, 36.60000991821289px) rotate(0deg) translate(-152.1699981689453px, -36.60000991821289px);transform: translate(152.1699981689453px, 36.60000991821289px) rotate(0deg) translate(-152.1699981689453px, -36.60000991821289px);}51.11%{-webkit-transform: translate(152.1699981689453px, 36.60000991821289px) rotate(-35deg) translate(-152.1699981689453px, -36.60000991821289px);transform: translate(152.1699981689453px, 36.60000991821289px) rotate(-35deg) translate(-152.1699981689453px, -36.60000991821289px);}100%{-webkit-transform: translate(152.1699981689453px, 36.60000991821289px) rotate(0deg) translate(-152.1699981689453px, -36.60000991821289px);transform: translate(152.1699981689453px, 36.60000991821289px) rotate(0deg) translate(-152.1699981689453px, -36.60000991821289px);}}@-webkit-keyframes kf_el_IQx72dy6Xc_an_XypqLeqFe{0%{-webkit-transform: translate(1259.5679931640625px, 260.65541076660156px) rotate(0deg) translate(-1259.5679931640625px, -260.65541076660156px);transform: translate(1259.5679931640625px, 260.65541076660156px) rotate(0deg) translate(-1259.5679931640625px, -260.65541076660156px);}51.11%{-webkit-transform: translate(1259.5679931640625px, 260.65541076660156px) rotate(-45deg) translate(-1259.5679931640625px, -260.65541076660156px);transform: translate(1259.5679931640625px, 260.65541076660156px) rotate(-45deg) translate(-1259.5679931640625px, -260.65541076660156px);}100%{-webkit-transform: translate(1259.5679931640625px, 260.65541076660156px) rotate(0deg) translate(-1259.5679931640625px, -260.65541076660156px);transform: translate(1259.5679931640625px, 260.65541076660156px) rotate(0deg) translate(-1259.5679931640625px, -260.65541076660156px);}}@keyframes kf_el_IQx72dy6Xc_an_XypqLeqFe{0%{-webkit-transform: translate(1259.5679931640625px, 260.65541076660156px) rotate(0deg) translate(-1259.5679931640625px, -260.65541076660156px);transform: translate(1259.5679931640625px, 260.65541076660156px) rotate(0deg) translate(-1259.5679931640625px, -260.65541076660156px);}51.11%{-webkit-transform: translate(1259.5679931640625px, 260.65541076660156px) rotate(-45deg) translate(-1259.5679931640625px, -260.65541076660156px);transform: translate(1259.5679931640625px, 260.65541076660156px) rotate(-45deg) translate(-1259.5679931640625px, -260.65541076660156px);}100%{-webkit-transform: translate(1259.5679931640625px, 260.65541076660156px) rotate(0deg) translate(-1259.5679931640625px, -260.65541076660156px);transform: translate(1259.5679931640625px, 260.65541076660156px) rotate(0deg) translate(-1259.5679931640625px, -260.65541076660156px);}}@-webkit-keyframes kf_el_gvZfGfDZxz8_an_eGzs41kZz{0%{-webkit-transform: translate(394.1650085449219px, 87.41500473022461px) rotate(0deg) translate(-394.1650085449219px, -87.41500473022461px);transform: translate(394.1650085449219px, 87.41500473022461px) rotate(0deg) translate(-394.1650085449219px, -87.41500473022461px);}100%{-webkit-transform: translate(394.1650085449219px, 87.41500473022461px) rotate(360deg) translate(-394.1650085449219px, -87.41500473022461px);transform: translate(394.1650085449219px, 87.41500473022461px) rotate(360deg) translate(-394.1650085449219px, -87.41500473022461px);}}@keyframes kf_el_gvZfGfDZxz8_an_eGzs41kZz{0%{-webkit-transform: translate(394.1650085449219px, 87.41500473022461px) rotate(0deg) translate(-394.1650085449219px, -87.41500473022461px);transform: translate(394.1650085449219px, 87.41500473022461px) rotate(0deg) translate(-394.1650085449219px, -87.41500473022461px);}100%{-webkit-transform: translate(394.1650085449219px, 87.41500473022461px) rotate(360deg) translate(-394.1650085449219px, -87.41500473022461px);transform: translate(394.1650085449219px, 87.41500473022461px) rotate(360deg) translate(-394.1650085449219px, -87.41500473022461px);}}@-webkit-keyframes kf_el_GocGNL3H-tH_an_bemeOahJi{0%{-webkit-transform: translate(1029.6650085449219px, 219.4550018310547px) rotate(0deg) translate(-1029.6650085449219px, -219.4550018310547px);transform: translate(1029.6650085449219px, 219.4550018310547px) rotate(0deg) translate(-1029.6650085449219px, -219.4550018310547px);}100%{-webkit-transform: translate(1029.6650085449219px, 219.4550018310547px) rotate(360deg) translate(-1029.6650085449219px, -219.4550018310547px);transform: translate(1029.6650085449219px, 219.4550018310547px) rotate(360deg) translate(-1029.6650085449219px, -219.4550018310547px);}}@keyframes kf_el_GocGNL3H-tH_an_bemeOahJi{0%{-webkit-transform: translate(1029.6650085449219px, 219.4550018310547px) rotate(0deg) translate(-1029.6650085449219px, -219.4550018310547px);transform: translate(1029.6650085449219px, 219.4550018310547px) rotate(0deg) translate(-1029.6650085449219px, -219.4550018310547px);}100%{-webkit-transform: translate(1029.6650085449219px, 219.4550018310547px) rotate(360deg) translate(-1029.6650085449219px, -219.4550018310547px);transform: translate(1029.6650085449219px, 219.4550018310547px) rotate(360deg) translate(-1029.6650085449219px, -219.4550018310547px);}}@-webkit-keyframes kf_el_tfbXIIGAGGv_an_qY7s73lj_{0%{-webkit-transform: translate(586.6900024414062px, 325.86500549316406px) rotate(0deg) translate(-586.6900024414062px, -325.86500549316406px);transform: translate(586.6900024414062px, 325.86500549316406px) rotate(0deg) translate(-586.6900024414062px, -325.86500549316406px);}100%{-webkit-transform: translate(586.6900024414062px, 325.86500549316406px) rotate(360deg) translate(-586.6900024414062px, -325.86500549316406px);transform: translate(586.6900024414062px, 325.86500549316406px) rotate(360deg) translate(-586.6900024414062px, -325.86500549316406px);}}@keyframes kf_el_tfbXIIGAGGv_an_qY7s73lj_{0%{-webkit-transform: translate(586.6900024414062px, 325.86500549316406px) rotate(0deg) translate(-586.6900024414062px, -325.86500549316406px);transform: translate(586.6900024414062px, 325.86500549316406px) rotate(0deg) translate(-586.6900024414062px, -325.86500549316406px);}100%{-webkit-transform: translate(586.6900024414062px, 325.86500549316406px) rotate(360deg) translate(-586.6900024414062px, -325.86500549316406px);transform: translate(586.6900024414062px, 325.86500549316406px) rotate(360deg) translate(-586.6900024414062px, -325.86500549316406px);}}@-webkit-keyframes kf_el_G7PcN37QTUu_an_Xp6WgyUYq{0%{opacity: 0.1;}50%{opacity: 0.25;}100%{opacity: 0.1;}}@keyframes kf_el_G7PcN37QTUu_an_Xp6WgyUYq{0%{opacity: 0.1;}50%{opacity: 0.25;}100%{opacity: 0.1;}}@-webkit-keyframes kf_el_NUgGtyllPUM_an_qmC_sy9U5{0%{opacity: 0.25;}50%{opacity: 0.1;}100%{opacity: 0.25;}}@keyframes kf_el_NUgGtyllPUM_an_qmC_sy9U5{0%{opacity: 0.25;}50%{opacity: 0.1;}100%{opacity: 0.25;}}@-webkit-keyframes kf_el_zSwIjA3OMch_an_Vl2luQ0kF{0%{opacity: 0.25;}50%{opacity: 0.1;}100%{opacity: 0.25;}}@keyframes kf_el_zSwIjA3OMch_an_Vl2luQ0kF{0%{opacity: 0.25;}50%{opacity: 0.1;}100%{opacity: 0.25;}}@-webkit-keyframes kf_el_IQx72dy6Xc_an_fot-I5PpV{0%{-webkit-transform: translate(1259.5679931640625px, 260.65541076660156px) scale(1, 1) translate(-1259.5679931640625px, -260.65541076660156px);transform: translate(1259.5679931640625px, 260.65541076660156px) scale(1, 1) translate(-1259.5679931640625px, -260.65541076660156px);}51.11%{-webkit-transform: translate(1259.5679931640625px, 260.65541076660156px) scale(1.05, 1.05) translate(-1259.5679931640625px, -260.65541076660156px);transform: translate(1259.5679931640625px, 260.65541076660156px) scale(1.05, 1.05) translate(-1259.5679931640625px, -260.65541076660156px);}100%{-webkit-transform: translate(1259.5679931640625px, 260.65541076660156px) scale(1, 1) translate(-1259.5679931640625px, -260.65541076660156px);transform: translate(1259.5679931640625px, 260.65541076660156px) scale(1, 1) translate(-1259.5679931640625px, -260.65541076660156px);}}@keyframes kf_el_IQx72dy6Xc_an_fot-I5PpV{0%{-webkit-transform: translate(1259.5679931640625px, 260.65541076660156px) scale(1, 1) translate(-1259.5679931640625px, -260.65541076660156px);transform: translate(1259.5679931640625px, 260.65541076660156px) scale(1, 1) translate(-1259.5679931640625px, -260.65541076660156px);}51.11%{-webkit-transform: translate(1259.5679931640625px, 260.65541076660156px) scale(1.05, 1.05) translate(-1259.5679931640625px, -260.65541076660156px);transform: translate(1259.5679931640625px, 260.65541076660156px) scale(1.05, 1.05) translate(-1259.5679931640625px, -260.65541076660156px);}100%{-webkit-transform: translate(1259.5679931640625px, 260.65541076660156px) scale(1, 1) translate(-1259.5679931640625px, -260.65541076660156px);transform: translate(1259.5679931640625px, 260.65541076660156px) scale(1, 1) translate(-1259.5679931640625px, -260.65541076660156px);}}@-webkit-keyframes kf_el_xyzIDNH1MBX_an_VZcOAsBSu{0%{-webkit-transform: translate(816.2905883789062px, 187.52377319335938px) scale(1.05, 1.05) translate(-816.2905883789062px, -187.52377319335938px);transform: translate(816.2905883789062px, 187.52377319335938px) scale(1.05, 1.05) translate(-816.2905883789062px, -187.52377319335938px);}51.11%{-webkit-transform: translate(816.2905883789062px, 187.52377319335938px) scale(1, 1) translate(-816.2905883789062px, -187.52377319335938px);transform: translate(816.2905883789062px, 187.52377319335938px) scale(1, 1) translate(-816.2905883789062px, -187.52377319335938px);}100%{-webkit-transform: translate(816.2905883789062px, 187.52377319335938px) scale(1.05, 1.05) translate(-816.2905883789062px, -187.52377319335938px);transform: translate(816.2905883789062px, 187.52377319335938px) scale(1.05, 1.05) translate(-816.2905883789062px, -187.52377319335938px);}}@keyframes kf_el_xyzIDNH1MBX_an_VZcOAsBSu{0%{-webkit-transform: translate(816.2905883789062px, 187.52377319335938px) scale(1.05, 1.05) translate(-816.2905883789062px, -187.52377319335938px);transform: translate(816.2905883789062px, 187.52377319335938px) scale(1.05, 1.05) translate(-816.2905883789062px, -187.52377319335938px);}51.11%{-webkit-transform: translate(816.2905883789062px, 187.52377319335938px) scale(1, 1) translate(-816.2905883789062px, -187.52377319335938px);transform: translate(816.2905883789062px, 187.52377319335938px) scale(1, 1) translate(-816.2905883789062px, -187.52377319335938px);}100%{-webkit-transform: translate(816.2905883789062px, 187.52377319335938px) scale(1.05, 1.05) translate(-816.2905883789062px, -187.52377319335938px);transform: translate(816.2905883789062px, 187.52377319335938px) scale(1.05, 1.05) translate(-816.2905883789062px, -187.52377319335938px);}}@-webkit-keyframes kf_el_9uXnnkJGqk_an_0sm2oiHjN{0%{-webkit-transform: translate(152.1699981689453px, 36.60000991821289px) scale(1, 1) translate(-152.1699981689453px, -36.60000991821289px);transform: translate(152.1699981689453px, 36.60000991821289px) scale(1, 1) translate(-152.1699981689453px, -36.60000991821289px);}51.11%{-webkit-transform: translate(152.1699981689453px, 36.60000991821289px) scale(1.05, 1.05) translate(-152.1699981689453px, -36.60000991821289px);transform: translate(152.1699981689453px, 36.60000991821289px) scale(1.05, 1.05) translate(-152.1699981689453px, -36.60000991821289px);}100%{-webkit-transform: translate(152.1699981689453px, 36.60000991821289px) scale(1, 1) translate(-152.1699981689453px, -36.60000991821289px);transform: translate(152.1699981689453px, 36.60000991821289px) scale(1, 1) translate(-152.1699981689453px, -36.60000991821289px);}}@keyframes kf_el_9uXnnkJGqk_an_0sm2oiHjN{0%{-webkit-transform: translate(152.1699981689453px, 36.60000991821289px) scale(1, 1) translate(-152.1699981689453px, -36.60000991821289px);transform: translate(152.1699981689453px, 36.60000991821289px) scale(1, 1) translate(-152.1699981689453px, -36.60000991821289px);}51.11%{-webkit-transform: translate(152.1699981689453px, 36.60000991821289px) scale(1.05, 1.05) translate(-152.1699981689453px, -36.60000991821289px);transform: translate(152.1699981689453px, 36.60000991821289px) scale(1.05, 1.05) translate(-152.1699981689453px, -36.60000991821289px);}100%{-webkit-transform: translate(152.1699981689453px, 36.60000991821289px) scale(1, 1) translate(-152.1699981689453px, -36.60000991821289px);transform: translate(152.1699981689453px, 36.60000991821289px) scale(1, 1) translate(-152.1699981689453px, -36.60000991821289px);}}#el_vL1UjEK36 *{-webkit-animation-duration: 3s;animation-duration: 3s;-webkit-animation-iteration-count: infinite;animation-iteration-count: infinite;-webkit-animation-timing-function: cubic-bezier(0, 0, 1, 1);animation-timing-function: cubic-bezier(0, 0, 1, 1);}#el_XgqgycfFwk{fill: url(#SVGID_1_);}#el_H123xlYVr2{fill: url(#SVGID_2_);}#el_e6F3Eo5Za1{fill: url(#SVGID_3_);}#el_IQx72dy6Xc{opacity: 0.25;}#el_9uXnnkJGqk{opacity: 0.25;}#el_xyzIDNH1MBX{opacity: 0.25;}#el_gvZfGfDZxz8{opacity: 0.25;}#el_GocGNL3H-tH{opacity: 0.25;}#el_tfbXIIGAGGv{opacity: 0.25;}#el_G7PcN37QTUu{opacity: 0.1;-webkit-animation-fill-mode: backwards;animation-fill-mode: backwards;-webkit-animation-name: kf_el_G7PcN37QTUu_an_Xp6WgyUYq;animation-name: kf_el_G7PcN37QTUu_an_Xp6WgyUYq;-webkit-animation-timing-function: cubic-bezier(0, 0, 1, 1);animation-timing-function: cubic-bezier(0, 0, 1, 1);}#el_NUgGtyllPUM{opacity: 0.25;-webkit-animation-fill-mode: backwards;animation-fill-mode: backwards;-webkit-animation-name: kf_el_NUgGtyllPUM_an_qmC_sy9U5;animation-name: kf_el_NUgGtyllPUM_an_qmC_sy9U5;-webkit-animation-timing-function: cubic-bezier(0, 0, 1, 1);animation-timing-function: cubic-bezier(0, 0, 1, 1);}#el_zSwIjA3OMch{opacity: 0.25;-webkit-animation-fill-mode: backwards;animation-fill-mode: backwards;-webkit-animation-name: kf_el_zSwIjA3OMch_an_Vl2luQ0kF;animation-name: kf_el_zSwIjA3OMch_an_Vl2luQ0kF;-webkit-animation-timing-function: cubic-bezier(0, 0, 1, 1);animation-timing-function: cubic-bezier(0, 0, 1, 1);}#el_9uXnnkJGqk_an_0sm2oiHjN{-webkit-animation-fill-mode: backwards;animation-fill-mode: backwards;-webkit-transform: translate(152.1699981689453px, 36.60000991821289px) scale(1, 1) translate(-152.1699981689453px, -36.60000991821289px);transform: translate(152.1699981689453px, 36.60000991821289px) scale(1, 1) translate(-152.1699981689453px, -36.60000991821289px);-webkit-animation-name: kf_el_9uXnnkJGqk_an_0sm2oiHjN;animation-name: kf_el_9uXnnkJGqk_an_0sm2oiHjN;-webkit-animation-timing-function: cubic-bezier(0, 0, 1, 1);animation-timing-function: cubic-bezier(0, 0, 1, 1);}#el_IQx72dy6Xc_an_fot-I5PpV{-webkit-transform: translate(1259.5679931640625px, 260.65541076660156px) scale(1, 1) translate(-1259.5679931640625px, -260.65541076660156px);transform: translate(1259.5679931640625px, 260.65541076660156px) scale(1, 1) translate(-1259.5679931640625px, -260.65541076660156px);-webkit-animation-fill-mode: backwards;animation-fill-mode: backwards;-webkit-animation-name: kf_el_IQx72dy6Xc_an_fot-I5PpV;animation-name: kf_el_IQx72dy6Xc_an_fot-I5PpV;-webkit-animation-timing-function: cubic-bezier(0, 0, 1, 1);animation-timing-function: cubic-bezier(0, 0, 1, 1);}#el_xyzIDNH1MBX_an_VZcOAsBSu{-webkit-animation-fill-mode: backwards;animation-fill-mode: backwards;-webkit-transform: translate(816.2905883789062px, 187.52377319335938px) scale(1.05, 1.05) translate(-816.2905883789062px, -187.52377319335938px);transform: translate(816.2905883789062px, 187.52377319335938px) scale(1.05, 1.05) translate(-816.2905883789062px, -187.52377319335938px);-webkit-animation-name: kf_el_xyzIDNH1MBX_an_VZcOAsBSu;animation-name: kf_el_xyzIDNH1MBX_an_VZcOAsBSu;-webkit-animation-timing-function: cubic-bezier(0, 0, 1, 1);animation-timing-function: cubic-bezier(0, 0, 1, 1);}#el_tfbXIIGAGGv_an_qY7s73lj_{-webkit-animation-fill-mode: backwards;animation-fill-mode: backwards;-webkit-transform: translate(586.6900024414062px, 325.86500549316406px) rotate(0deg) translate(-586.6900024414062px, -325.86500549316406px);transform: translate(586.6900024414062px, 325.86500549316406px) rotate(0deg) translate(-586.6900024414062px, -325.86500549316406px);-webkit-animation-name: kf_el_tfbXIIGAGGv_an_qY7s73lj_;animation-name: kf_el_tfbXIIGAGGv_an_qY7s73lj_;-webkit-animation-timing-function: cubic-bezier(0, 0, 1, 1);animation-timing-function: cubic-bezier(0, 0, 1, 1);}#el_GocGNL3H-tH_an_bemeOahJi{-webkit-animation-fill-mode: backwards;animation-fill-mode: backwards;-webkit-transform: translate(1029.6650085449219px, 219.4550018310547px) rotate(0deg) translate(-1029.6650085449219px, -219.4550018310547px);transform: translate(1029.6650085449219px, 219.4550018310547px) rotate(0deg) translate(-1029.6650085449219px, -219.4550018310547px);-webkit-animation-name: kf_el_GocGNL3H-tH_an_bemeOahJi;animation-name: kf_el_GocGNL3H-tH_an_bemeOahJi;-webkit-animation-timing-function: cubic-bezier(0, 0, 1, 1);animation-timing-function: cubic-bezier(0, 0, 1, 1);}#el_gvZfGfDZxz8_an_eGzs41kZz{-webkit-animation-fill-mode: backwards;animation-fill-mode: backwards;-webkit-transform: translate(394.1650085449219px, 87.41500473022461px) rotate(0deg) translate(-394.1650085449219px, -87.41500473022461px);transform: translate(394.1650085449219px, 87.41500473022461px) rotate(0deg) translate(-394.1650085449219px, -87.41500473022461px);-webkit-animation-name: kf_el_gvZfGfDZxz8_an_eGzs41kZz;animation-name: kf_el_gvZfGfDZxz8_an_eGzs41kZz;-webkit-animation-timing-function: cubic-bezier(0, 0, 1, 1);animation-timing-function: cubic-bezier(0, 0, 1, 1);}#el_IQx72dy6Xc_an_XypqLeqFe{-webkit-animation-fill-mode: backwards;animation-fill-mode: backwards;-webkit-transform: translate(1259.5679931640625px, 260.65541076660156px) rotate(0deg) translate(-1259.5679931640625px, -260.65541076660156px);transform: translate(1259.5679931640625px, 260.65541076660156px) rotate(0deg) translate(-1259.5679931640625px, -260.65541076660156px);-webkit-animation-name: kf_el_IQx72dy6Xc_an_XypqLeqFe;animation-name: kf_el_IQx72dy6Xc_an_XypqLeqFe;-webkit-animation-timing-function: cubic-bezier(0, 0, 1, 1);animation-timing-function: cubic-bezier(0, 0, 1, 1);}#el_9uXnnkJGqk_an_6nOrZE0PJ{-webkit-animation-fill-mode: backwards;animation-fill-mode: backwards;-webkit-transform: translate(152.1699981689453px, 36.60000991821289px) rotate(0deg) translate(-152.1699981689453px, -36.60000991821289px);transform: translate(152.1699981689453px, 36.60000991821289px) rotate(0deg) translate(-152.1699981689453px, -36.60000991821289px);-webkit-animation-name: kf_el_9uXnnkJGqk_an_6nOrZE0PJ;animation-name: kf_el_9uXnnkJGqk_an_6nOrZE0PJ;-webkit-animation-timing-function: cubic-bezier(0, 0, 1, 1);animation-timing-function: cubic-bezier(0, 0, 1, 1);}#el_xyzIDNH1MBX_an_g6O5WcVUA{-webkit-animation-fill-mode: backwards;animation-fill-mode: backwards;-webkit-transform: translate(816.2905883789062px, 187.52377319335938px) rotate(0deg) translate(-816.2905883789062px, -187.52377319335938px);transform: translate(816.2905883789062px, 187.52377319335938px) rotate(0deg) translate(-816.2905883789062px, -187.52377319335938px);-webkit-animation-name: kf_el_xyzIDNH1MBX_an_g6O5WcVUA;animation-name: kf_el_xyzIDNH1MBX_an_g6O5WcVUA;-webkit-animation-timing-function: cubic-bezier(0, 0, 1, 1);animation-timing-function: cubic-bezier(0, 0, 1, 1);}</style>

<linearGradient id="SVGID_1_" gradientUnits="userSpaceOnUse" x1="0" y1="219.5505" x2="1366" y2="219.5505">
	<stop offset="0" style="stop-color:#AAC9FF"/>
	<stop offset="1" style="stop-color:#1578FF"/>
</linearGradient>
<path d="M0,323c167.84,108.22,313.78,139.6,404,150c178.28,20.55,351.53-16.36,409-29c149.36-32.86,215.21-72.95,342-62&#10;&#9;c91.74,7.92,164.52,38.17,211,61.96c0-161.32,0-322.64,0-483.96C910.67-40,455.33-40,0-40C0,81,0,202,0,323z" id="el_XgqgycfFwk"/>
<linearGradient id="SVGID_2_" gradientUnits="userSpaceOnUse" x1="0" y1="160.8314" x2="1366" y2="160.8314">
	<stop offset="0" style="stop-color:#E42C76"/>
	<stop offset="1" style="stop-color:#F19AA0"/>
</linearGradient>
<path d="M0,291.7c168.12,91.97,313.44,118.59,405,127.22c170.34,16.07,337.33-12.86,407-24.93&#10;&#9;c144.84-25.09,213.15-54.79,345-49c89.21,3.92,161.49,22.06,209,36.96c0-161.32,0-322.64,0-483.96c-455.33,0-910.67,0-1366,0&#10;&#9;C0,29.23,0,160.47,0,291.7z" id="el_H123xlYVr2"/>
<radialGradient id="SVGID_3_" cx="822" cy="617" r="0" gradientUnits="userSpaceOnUse">
	<stop offset="0" style="stop-color:#E42C76"/>
	<stop offset="0.0916" style="stop-color:#0D6583"/>
</radialGradient>
<path d="M822,617" id="el_e6F3Eo5Za1"/>
<g id="el_IQx72dy6Xc_an_XypqLeqFe" data-animator-group="true" data-animator-type="1"><g id="el_IQx72dy6Xc_an_fot-I5PpV" data-animator-group="true" data-animator-type="2"><g id="el_IQx72dy6Xc">
	<g id="el_p_CzdWzMfG">
		<path d="M1314.59,243.43c-0.3,0.3-0.32,0.72-0.46,1.08c-0.9,2.25-2.3,4.1-4.25,5.54c-1.49,1.1-3.01,2.18-4.5,3.29&#10;&#9;&#9;&#9;c-0.43,0.32-0.69,0.3-1.01-0.14c-2.01-2.8-4.03-5.59-6.05-8.37c-2.76-3.8-5.51-7.59-8.27-11.38c-2.28-3.13-4.57-6.24-6.84-9.37&#10;&#9;&#9;&#9;c-0.18-0.25-0.5-0.51-0.01-0.84c2.26-1.53,4.29-3.39,6.76-4.6c1.55-0.76,3.2-1.07,4.91-1.16c0.26-0.01,0.53,0.09,0.77-0.1&#10;&#9;&#9;&#9;c1,0.16,1.99,0.31,2.99,0.47c0.08,0.16,0.25,0.18,0.4,0.23c2.76,0.93,4.9,2.63,6.58,5c1.79,2.52,3.66,4.99,5.47,7.5&#10;&#9;&#9;&#9;c1.22,1.69,2.5,3.34,3.2,5.36c0.51,1.47,0.57,3,0.78,4.51C1314.9,241.44,1314.74,242.44,1314.59,243.43z" id="el_H2rmLXnx42"/>
		<path d="M1204.14,303.41c0.29-0.15,0.33-0.47,0.44-0.72c2.24-5.27,4.47-10.55,6.71-15.82c1.59-3.73,3.19-7.46,4.79-11.19&#10;&#9;&#9;&#9;c0.06-0.14,0.14-0.28,0.25-0.51c1.23,1.73,2.78,2.95,4.73,3.63c0.47,0.17,0.29,0.51,0.21,0.79c-0.78,2.72-0.56,5.39,0.6,7.93&#10;&#9;&#9;&#9;c2.02,4.41,5.42,7.04,10.35,7.45c0.74,0.06,1.11,0.17,1.14,1.05c0.08,2.08,0.45,2.96,1.72,5c-0.63,0.24-1.3,0.24-1.95,0.29&#10;&#9;&#9;&#9;c-7.98,0.71-15.95,1.39-23.93,2.11c-1.61,0.15-3.23,0.14-4.82,0.51C1203.88,303.95,1204.15,303.61,1204.14,303.41z" id="el_3yb1LpQMAI"/>
		<path d="M1232.12,288.76c-2.21-0.54-3.99-1.86-4.74-4.3c-0.76-2.47-0.21-4.67,1.73-6.37c2.47-2.17,5.26-3.95,7.92-5.89&#10;&#9;&#9;&#9;c15.7-11.44,31.42-22.86,47.13-34.28c1.08-0.79,0.83-0.8,1.6,0.26c2.07,2.82,4.1,5.67,6.19,8.49c0.39,0.53,0.37,0.78-0.18,1.17&#10;&#9;&#9;&#9;c-9.61,6.96-19.2,13.94-28.8,20.92c-8.46,6.15-16.92,12.29-25.37,18.46C1236.02,288.37,1234.32,289.04,1232.12,288.76z" id="el_ayjltSakF_"/>
		<path d="M1241.96,298.29c-1.29-0.25-2.13-1.03-2.5-2.28c-0.35-1.17,0.12-2.53,1.12-3.27c4.67-3.41,9.35-6.81,14.03-10.21&#10;&#9;&#9;&#9;c5.19-3.77,10.39-7.55,15.58-11.32c5.54-4.02,11.07-8.04,16.61-12.07c2.83-2.06,5.68-4.1,8.48-6.2c0.65-0.48,0.97-0.45,1.41,0.22&#10;&#9;&#9;&#9;c0.83,1.26,1.73,2.48,2.65,3.68c0.35,0.46,0.29,0.67-0.16,0.99c-6.92,5.01-13.83,10.05-20.74,15.07&#10;&#9;&#9;&#9;c-11.2,8.15-22.41,16.29-33.61,24.44C1243.97,297.98,1243.09,298.5,1241.96,298.29z" id="el_T9gEJAFbH6"/>
		<path d="M1221.1,269.38c0.11-0.84,0.69-1.5,1.44-2.05c5.77-4.2,11.54-8.39,17.32-12.59c9.85-7.16,19.7-14.32,29.54-21.48&#10;&#9;&#9;&#9;c2.6-1.89,5.2-3.76,7.79-5.66c0.45-0.33,0.67-0.32,1,0.15c0.92,1.33,1.87,2.64,2.86,3.92c0.33,0.43,0.25,0.65-0.15,0.95&#10;&#9;&#9;&#9;c-2.8,2.01-5.58,4.04-8.37,6.07c-5.21,3.79-10.42,7.58-15.63,11.37c-5.06,3.68-10.12,7.36-15.18,11.04&#10;&#9;&#9;&#9;c-5.23,3.8-10.47,7.6-15.71,11.39c-1.07,0.78-2.44,0.83-3.52,0.16C1221.43,271.99,1220.87,270.75,1221.1,269.38z" id="el_WpDAt73bZi"/>
	</g>
</g></g></g>
<g id="el_9uXnnkJGqk_an_6nOrZE0PJ" data-animator-group="true" data-animator-type="1"><g id="el_9uXnnkJGqk_an_0sm2oiHjN" data-animator-group="true" data-animator-type="2"><g id="el_9uXnnkJGqk">
	<g id="el_NLRRMB465R">
		<path d="M151.84,63.61c-0.31,0.34-0.3,0.8-0.44,1.19c-0.84,2.48-2.24,4.57-4.26,6.23c-1.55,1.28-3.12,2.53-4.66,3.82&#10;&#9;&#9;&#9;c-0.45,0.38-0.73,0.37-1.1-0.1c-2.33-2.9-4.68-5.79-7.03-8.67c-3.2-3.93-6.4-7.86-9.61-11.79c-2.65-3.24-5.3-6.47-7.94-9.71&#10;&#9;&#9;&#9;c-0.21-0.26-0.57-0.52-0.06-0.91c2.35-1.78,4.42-3.92,7.02-5.37c1.63-0.91,3.4-1.35,5.23-1.55c0.28-0.03,0.58,0.06,0.83-0.15&#10;&#9;&#9;&#9;c1.09,0.11,2.17,0.22,3.26,0.33c0.1,0.17,0.28,0.18,0.44,0.22c3.03,0.84,5.45,2.55,7.41,5c2.09,2.62,4.25,5.17,6.35,7.77&#10;&#9;&#9;&#9;c1.42,1.75,2.9,3.46,3.78,5.59c0.64,1.56,0.79,3.2,1.11,4.82C152.06,61.44,151.95,62.52,151.84,63.61z" id="el_WE_3zrJ3af"/>
		<path d="M36.21,134.94c0.31-0.18,0.33-0.52,0.43-0.81c2.1-5.82,4.19-11.65,6.3-17.47c1.49-4.12,3-8.24,4.5-12.36&#10;&#9;&#9;&#9;c0.06-0.16,0.13-0.31,0.24-0.56c1.43,1.8,3.18,3.02,5.32,3.63c0.52,0.15,0.34,0.53,0.27,0.84c-0.68,2.98-0.29,5.86,1.12,8.52&#10;&#9;&#9;&#9;c2.45,4.64,6.27,7.28,11.61,7.42c0.8,0.02,1.21,0.12,1.3,1.06c0.21,2.24,0.66,3.17,2.16,5.29c-0.67,0.3-1.39,0.33-2.08,0.43&#10;&#9;&#9;&#9;c-8.57,1.24-17.14,2.45-25.7,3.71c-1.72,0.25-3.48,0.34-5.17,0.84C35.96,135.54,36.23,135.16,36.21,134.94z" id="el_y52pozIdfS"/>
		<path d="M65.54,117.46c-2.41-0.45-4.41-1.77-5.37-4.36c-0.96-2.62-0.5-5.03,1.48-6.98c2.54-2.49,5.44-4.58,8.19-6.83&#10;&#9;&#9;&#9;c16.27-13.28,32.55-26.55,48.83-39.82c1.12-0.91,0.84-0.91,1.74,0.18c2.4,2.92,4.77,5.88,7.19,8.79c0.46,0.55,0.44,0.82-0.12,1.28&#10;&#9;&#9;&#9;c-9.96,8.09-19.89,16.19-29.83,24.3c-8.76,7.14-17.53,14.28-26.28,21.44C69.72,116.8,67.93,117.63,65.54,117.46z" id="el_B1XYpW7ZfF"/>
		<path d="M76.73,127.15c-1.41-0.19-2.36-0.99-2.83-2.31c-0.44-1.24-0.03-2.74,1.02-3.59c4.84-3.96,9.68-7.91,14.53-11.86&#10;&#9;&#9;&#9;c5.38-4.38,10.76-8.77,16.14-13.15c5.74-4.67,11.47-9.34,17.21-14.02c2.93-2.39,5.88-4.77,8.78-7.2c0.67-0.56,1.02-0.54,1.54,0.15&#10;&#9;&#9;&#9;c0.97,1.31,2.02,2.57,3.08,3.81c0.41,0.47,0.35,0.7-0.12,1.08c-7.17,5.82-14.32,11.67-21.48,17.51&#10;&#9;&#9;&#9;c-11.61,9.46-23.22,18.92-34.82,28.39C78.88,126.7,77.96,127.32,76.73,127.15z" id="el_ulRICx3gr7Q"/>
		<path d="M52.48,97.19c0.07-0.91,0.66-1.66,1.44-2.3c5.98-4.87,11.96-9.75,17.94-14.62c10.2-8.32,20.4-16.63,30.61-24.95&#10;&#9;&#9;&#9;c2.69-2.19,5.39-4.37,8.07-6.58c0.46-0.38,0.7-0.39,1.08,0.1c1.07,1.38,2.18,2.73,3.32,4.06c0.38,0.44,0.31,0.69-0.11,1.03&#10;&#9;&#9;&#9;c-2.9,2.34-5.78,4.7-8.67,7.05c-5.4,4.4-10.79,8.81-16.19,13.21c-5.24,4.27-10.48,8.55-15.72,12.82&#10;&#9;&#9;&#9;c-5.42,4.42-10.85,8.83-16.28,13.24c-1.11,0.9-2.58,1.04-3.79,0.38C52.99,100,52.32,98.69,52.48,97.19z" id="el_vt3wkw7_s1N"/>
	</g>
</g></g></g>
<g id="el_xyzIDNH1MBX_an_g6O5WcVUA" data-animator-group="true" data-animator-type="1"><g id="el_xyzIDNH1MBX_an_VZcOAsBSu" data-animator-group="true" data-animator-type="2"><g id="el_xyzIDNH1MBX">
	<g id="el_f_bT_gdMEb8">
		<path d="M846.33,189.64c1.52,1.27,2.91,2.65,3.74,4.49c0.97,2.13,1.62,4.39,2.4,6.6c0.17,0.47-0.16,0.56-0.48,0.67&#10;&#9;&#9;&#9;c-1.99,0.71-3.99,1.41-5.98,2.12c-3.73,1.31-7.46,2.62-11.19,3.94c-5.06,1.78-10.12,3.56-15.18,5.35&#10;&#9;&#9;&#9;c-0.44,0.16-0.7,0.11-0.86-0.37c-0.75-2.32-1.8-4.55-2.29-6.95c-0.37-1.86-0.19-3.71,0.25-5.54c0.55-1.14,1.09-2.27,1.64-3.41&#10;&#9;&#9;&#9;c1.59-2.06,3.54-3.62,6.02-4.48c2.28-0.79,4.56-1.6,6.84-2.4c1.02-0.36,2.06-0.68,3.06-1.09c2.77-1.11,5.6-1.37,8.5-0.62&#10;&#9;&#9;&#9;C843.97,188.51,845.15,189.07,846.33,189.64z" id="el_CFbQN4nugde"/>
		<path d="M870.04,306.03c-1.39-1.43-3.02-2.58-4.54-3.87c-2.68-2.28-5.42-4.5-8.14-6.75c-3.03-2.5-6.05-5.01-9.09-7.5&#10;&#9;&#9;&#9;c-0.45-0.37-0.59-0.55,0.11-0.81c1.51-0.57,2.83-1.43,3.77-2.79c0.35-0.5,0.71-0.58,1.26-0.25c3.06,1.82,6.34,2.14,9.68,1.01&#10;&#9;&#9;&#9;c3.14-1.06,5.48-3.13,6.86-6.2c0.69-1.54,0.69-1.54,2.33-1.24c1.27,0.23,2.51,0.13,3.72-0.27c0.7-0.23,0.78,0.02,0.65,0.63&#10;&#9;&#9;&#9;c-0.59,2.76-1.16,5.52-1.73,8.28c-1.03,5.06-2.05,10.11-3.08,15.17c-0.29,1.4-0.67,2.79-0.8,4.22&#10;&#9;&#9;&#9;C870.9,306.32,870.56,306.43,870.04,306.03z" id="el_Lhlqmj-V8z2"/>
		<path d="M864.48,277.13c-1.02,1.76-2.9,2.97-5.45,2.85c-2.38-0.11-4.17-1.3-5.13-3.52c-1.35-3.12-2.32-6.39-3.47-9.59&#10;&#9;&#9;&#9;c-1.54-4.29-3.03-8.6-4.54-12.9c-2.19-6.25-4.38-12.5-6.58-18.75c-1.74-4.94-3.49-9.87-5.24-14.81c-0.62-1.76-1.21-3.53-1.84-5.28&#10;&#9;&#9;&#9;c-0.18-0.48-0.13-0.72,0.39-0.9c3.38-1.17,6.76-2.36,10.12-3.56c0.51-0.18,0.72-0.04,0.88,0.45c1.8,5.18,3.62,10.36,5.44,15.54&#10;&#9;&#9;&#9;c1.74,4.94,3.49,9.87,5.23,14.82c2.29,6.51,4.56,13.02,6.85,19.53c1.22,3.47,2.45,6.93,3.68,10.39&#10;&#9;&#9;&#9;C865.54,273.38,865.51,275.03,864.48,277.13z" id="el_r2viTh03Z8a"/>
		<path d="M848.13,280.22c-0.56,1.11-1.49,1.71-2.72,1.73c-1.27,0.02-2.28-0.56-2.76-1.75c-0.68-1.68-1.25-3.4-1.85-5.11&#10;&#9;&#9;&#9;c-2.76-7.83-5.51-15.67-8.26-23.51c-2.46-6.98-4.91-13.97-7.37-20.95c-1.36-3.87-2.72-7.74-4.11-11.6&#10;&#9;&#9;&#9;c-0.17-0.47-0.08-0.69,0.38-0.85c1.5-0.51,3-1.03,4.49-1.59c0.58-0.22,0.79-0.03,0.98,0.51c3.19,9.11,6.4,18.21,9.6,27.31&#10;&#9;&#9;&#9;c3.07,8.72,6.13,17.45,9.2,26.17c0.82,2.33,1.65,4.66,2.45,6.99C848.47,278.45,848.57,279.34,848.13,280.22z" id="el_Xc6wVWzY0WE"/>
		<path d="M875.85,270.81c-0.38,0.73-1.34,1.32-2.59,1.32c-1.17,0-2.09-0.55-2.63-1.61c-0.69-1.38-1.09-2.87-1.6-4.32&#10;&#9;&#9;&#9;c-3.42-9.7-6.81-19.4-10.22-29.1c-3.24-9.22-6.49-18.44-9.76-27.65c-0.25-0.7-0.1-0.98,0.58-1.2c1.44-0.46,2.86-0.98,4.28-1.49&#10;&#9;&#9;&#9;c0.48-0.18,0.71-0.08,0.89,0.44c1.75,5.01,3.54,10.01,5.29,15.02c2.26,6.44,4.49,12.88,6.76,19.32&#10;&#9;&#9;&#9;c2.02,5.75,4.09,11.48,6.09,17.24c1.04,2.97,2.05,5.95,3.14,8.91C876.39,268.57,876.5,269.49,875.85,270.81z" id="el_eOeOPA7NFYS"/>
	</g>
</g></g></g>
<g id="el_gvZfGfDZxz8_an_eGzs41kZz" data-animator-group="true" data-animator-type="1"><polygon points="402.81,129.85 382.77,108.01 353.41,112.14 367.99,86.33 355,59.69 384.05,65.58 405.37,44.98 &#10;&#9;408.75,74.43 434.92,88.35 407.95,100.66 " id="el_gvZfGfDZxz8"/></g>
<g id="el_GocGNL3H-tH_an_bemeOahJi" data-animator-group="true" data-animator-type="1"><polygon points="1065.52,234 1040.25,234.17 1026.06,255.09 1018.09,231.1 993.81,224.07 1014.16,209.08 &#10;&#9;1013.35,183.82 1033.89,198.53 1057.66,189.95 1050.02,214.04 " id="el_GocGNL3H-tH"/></g>
<g id="el_tfbXIIGAGGv_an_qY7s73lj_" data-animator-group="true" data-animator-type="1"><polygon points="617.64,362.27 590.18,351.06 565.38,367.34 567.55,337.76 544.42,319.21 573.21,312.13 583.71,284.39 &#10;&#9;599.34,309.59 628.96,311 609.83,333.66 " id="el_tfbXIIGAGGv"/></g>
<path d="M687.13,145c-14.64-16.48-27.89-25.02-37.45-29.79c-4.18-2.09-11.25-5.24-16.17-12.77&#10;&#9;c-1.1-1.68-8.6-13.15-3.4-22.98c4.88-9.23,18.08-11.56,27.24-8.51c4.53,1.51,7.63,4.18,9.36,5.96c0.46-2.4,1.53-5.99,4.26-9.36&#10;&#9;c5.52-6.83,16.54-11.14,24.68-6.81c8.95,4.76,9.28,17.23,9.36,20.43c0.25,9.43-3.73,15.88-6.81,22.13&#10;&#9;C693.8,112.22,688.79,125.75,687.13,145z" id="el_G7PcN37QTUu"/>
<path d="M271.72,363.35c-7.23-19.15-15.88-30.94-22.59-38.25c-2.94-3.2-8.01-8.27-9.79-16.43&#10;&#9;c-0.4-1.82-3.1-14.26,4.67-21.05c7.29-6.38,19.51-4.02,26.44,1.65c3.43,2.81,5.23,6.16,6.14,8.27c1.2-1.92,3.32-4.69,6.79-6.71&#10;&#9;c7.05-4.09,18.03-4.18,23.66,2.28c6.18,7.1,2.33,18.01,1.34,20.82c-2.91,8.26-8.5,12.53-13.24,16.93&#10;&#9;C288.37,337.14,279.54,347.22,271.72,363.35z" id="el_NUgGtyllPUM"/>
<path d="M1174.3,147.65c-4.03-21.53-10.94-35.57-16.64-44.52c-2.49-3.92-6.89-10.21-7.23-19.14&#10;&#9;c-0.08-2-0.59-15.6,8.86-21.3c8.88-5.36,21.31-0.59,27.54,6.69c3.08,3.6,4.35,7.46,4.92,9.86c1.62-1.8,4.37-4.32,8.41-5.79&#10;&#9;c8.19-2.99,19.78-1.02,24.5,6.83c5.18,8.63-0.92,19.41-2.48,22.18c-4.61,8.15-11.3,11.61-17.12,15.35&#10;&#9;C1196.75,123.16,1185.56,132.11,1174.3,147.65z" id="el_zSwIjA3OMch"/>
</svg>